<svg width="500" height="326" viewBox="0 0 500 326" fill="none" xmlns="http://www.w3.org/2000/svg">
<g clip-path="url(#clip0_3_12)">
<path d="M0 0H498.435H500V326H499.117H336.538H306.578H300.332H0V273.783V91.9703V0Z" fill="white"/>
<path d="M0 0H498.435C499.435 9.43723 499.022 23.1799 499.022 32.9263L499.035 91.9662L311.668 91.9678C306.808 78.0225 297.635 69.661 284.245 63.4232C256.2 50.359 219.073 48.5315 189.724 58.183C177.263 62.281 163.987 70.645 156.487 81.4003C154.096 84.829 152.479 88.2715 150.39 91.833C144.997 92.1925 137.822 91.9712 132.274 91.9682L100.101 91.966L0 91.9703V0Z" fill="#221F20"/>
<path d="M0 273.782L72.803 273.765C84.8628 273.765 97.6895 273.987 109.707 273.742C113.223 284.147 121.675 276.057 128.88 277.272C142.196 279.515 156.761 283.52 168.066 291.13C170.778 292.955 174.858 294.125 177.695 295.895C186.111 301.27 196.356 305.89 205.758 308.567C214.128 310.952 219.592 316.275 227.26 310.5C229.716 308.65 237.629 312.467 240.616 312.967C245.506 317.55 260.923 315.075 267.095 314.652C269.43 314.492 274.288 315.692 276 315.17C276.623 315.2 276.762 315.33 277.115 315.035C277.835 316.075 296.372 322.95 300.332 326H0V273.782Z" fill="#EE1B23"/>
<path d="M378.33 273.688C391.315 274.212 406.802 273.775 420.062 273.772L499.032 273.78C499.197 290.447 499.537 309.355 499.117 326H336.537C341.595 321.782 347.162 320.333 352.165 315.915C356.85 311.78 357.875 308.427 360.907 303.277C362.597 300.407 366.472 298.91 368.435 295.505C372.445 288.558 374.207 280.495 378.33 273.688Z" fill="#EE1B23"/>
<path d="M269.033 312.968C268.803 311.9 268.545 311.05 268.703 309.968C269.423 309.058 271.363 308.853 272.328 309.513C273.183 311.623 271.493 312.525 272.13 313.293C273.895 313.878 274.483 314.023 276 315.17C274.288 315.693 269.43 314.493 267.095 314.653C260.923 315.075 245.506 317.55 240.616 312.968C242.556 310.983 243.402 312.593 245.681 313.045C253.428 314.585 261.138 312.868 269.033 312.968Z" fill="#221F20"/>
<path d="M277.115 315.035C278.96 313.458 281.913 314.715 283.815 315.573C288.6 317.735 293.41 319.95 298.135 322.233C300.515 323.383 304.54 324.642 306.578 326H300.332C296.372 322.95 277.835 316.075 277.115 315.035Z" fill="#221F20"/>
<path d="M220.905 58.6074C243.505 57.6272 286.765 63.8207 300.852 83.1059C304.787 88.4557 306.417 95.1592 305.377 101.719C310.282 109.5 314.697 121.24 316.46 130.379C316.802 132.151 316.832 135.804 316.862 137.693C317.34 138.507 317.66 139.391 318.602 139.466C319.347 138.876 319.7 138.379 320.502 138.999C321.857 141.823 318.94 142.781 316.857 143.824C316.99 144.899 317.2 147.903 317.557 148.742C318.215 150.29 321.022 152.037 322.327 153.214C325.272 155.871 328.222 159.126 329.505 162.92C332.362 171.37 330.892 180.547 327.475 188.592C326.427 191.053 324.362 195.847 323.72 198.189C322.495 202.648 323.632 207.743 321.52 212.287C322.747 214.94 324.895 217.369 325.865 220.063C327.187 223.727 326.312 228.46 324.697 231.904C325.157 232.975 325.42 233.786 325.69 234.925C325.987 235.885 325.825 239.871 326.455 240.444C334.102 247.406 346.06 248.923 355.932 250.26C361.7 251.04 364.942 252.17 369.785 255.425C373.207 257.727 375.53 257.722 378.24 261.392C378.3 262.43 378.25 263.802 378.242 264.867C376.522 267.812 373.65 270.02 372.065 272.83C369.407 277.537 367.795 283.375 365.657 288.367C364.942 290.04 363.277 293.61 361.597 294.282C360.832 294.19 361.115 294.347 360.6 293.697C359.852 289.755 366.92 274.797 369.322 270.57C370.767 268.027 373.56 266.032 375.565 261.867C373.662 260.23 364.685 255.702 361.8 254.277C360.78 253.775 358.235 253.347 356.98 253.405C349.285 253.762 347.807 264.032 344.737 269.297C342.822 272.375 340.562 275.077 338.795 278.26C338.007 279.677 336.837 285.18 335.187 285.13C334.685 284.435 334.735 284.092 334.675 283.275C334.587 282.065 335.332 278.867 335.855 277.82C337.332 274.857 339.46 271.872 341.015 268.907C342.982 265.155 344.587 260.982 346.782 257.372C347.767 255.75 350.057 253.397 351.405 251.987C344.202 249.987 339.97 250.455 332.395 247.213C328.917 251.797 325.36 262.152 322.24 267.33C322.085 267.585 321.807 267.45 321.412 267.392C318.487 265.222 322.74 258.282 324.007 255.537C321.295 257.572 316.397 264.405 313.935 264.77L313.59 264.485C313.58 263.712 314.03 262.487 314.545 261.932C318.202 257.96 322.172 254.427 325.14 249.846C327.837 245.681 329.195 243.632 323.3 242.477C322.077 243.422 321.095 244.464 320.047 245.634C316.35 249.767 312.152 253.597 308.122 257.382C305.22 260.107 304.222 262.925 303.465 266.53C305.695 265.715 308.767 264.735 311.087 265.342C314.59 266.26 319.4 268.737 318.377 273.092C316.312 273.055 309.47 264.475 305.78 268.11C303.917 269.942 307.022 276.575 307.592 278.755C310.197 288.7 316.247 293.605 324.412 299.055C331.827 304.005 331.475 311.687 332.255 319.522C332.37 320.512 332.35 320.64 331.807 321.322C329.46 322.225 324.825 319.84 322.592 318.807C318.377 316.855 313.84 314.93 309.857 312.585C302.49 308.245 295.757 303.22 288.475 298.665C280.752 293.835 272.707 289.307 265.242 284.152C259.925 280.507 255.282 275.992 250.2 272.055C244.351 267.527 238.065 263.542 232.026 259.272C222.489 252.532 212.413 246.87 201.051 243.867C195.077 242.288 189.262 241.197 183.041 241.534C181.984 241.592 179.366 241.721 178.702 242.455C179.597 242.909 180.989 242.966 182.014 243.124C195.989 245.282 209.858 251.925 222.349 258.335C235.143 264.9 245.857 275.01 256.85 284.045C261.02 287.47 266.025 290.552 270.635 293.36C274.73 295.835 279.847 298.285 283.662 300.905C290.952 305.917 296.592 310.975 304.812 314.67C307.397 315.832 316.102 319.602 317.215 321.727L317.09 322.127C315.71 322.495 314.255 321.747 313.005 321.08C307.532 318.16 301.13 317.025 296.15 313.272C295.007 312.41 293.732 311.572 292.555 310.747C288.895 308.17 285.165 305.69 281.367 303.317C275.597 299.745 269.12 297.107 263.572 293.155C258.172 289.317 253.227 284.912 248.04 280.797C227.247 264.305 203.411 248.148 176.208 245.879C173.386 245.643 170.188 245.028 167.402 245.129C161.875 245.328 156.303 248.775 151.741 251.52C161.916 251.465 168.491 254.477 177.038 259.792C180.077 261.682 183.59 264.017 186.897 265.387C190.664 266.95 195.112 267.332 199.017 268.657C208.706 271.942 218.854 276.462 227.684 281.602C228.523 280.395 229.095 279.427 230.614 279.63C231.483 280.237 231.658 280.34 232.236 281.27C232.214 282.295 232.072 282.205 231.391 283.19C232.225 285.362 248.179 292.27 248.61 296.845L248.296 297.165C245.468 297.52 235.927 291.795 233.232 290.052C218.107 280.275 202.11 274.592 185.37 268.375C177.324 265.387 170.566 260.635 161.766 258.305C147.574 254.542 137.954 260.372 125.983 267.215C129.835 267.252 134.658 267.262 138.395 268.112C165.883 274.367 186.716 295.932 214.038 302.205C216.503 302.772 226.31 307.377 227.622 309.13L227.507 309.477C223.32 310.012 194.153 298.317 188.11 295.665C183.942 293.66 180.199 290.77 176.137 288.58C167.886 284.167 159.35 280.635 150.593 277.31C142.362 274.185 133.095 271.422 124.181 272.095C122.401 272.23 116.886 274.097 115.514 272.93L115.532 272.475C117.404 269.285 142.117 254.87 146.583 252.307C142.421 247.62 140.609 244.835 138.544 238.694C132.187 219.795 133.986 192.054 143.515 174.46C145.963 169.941 152.753 164.951 154.438 161.487L154.519 161.319C155.445 159.411 154.274 155.96 153.602 153.983C147.025 134.641 145.235 111.806 156.003 93.5674C158.046 90.1072 159.797 86.4862 162.527 83.4567C177.225 67.2094 199.624 60.1979 220.905 58.6074Z" fill="#1F1D1E"/>
<path d="M258.192 123.519C258.357 122.2 259.357 116.884 259.755 115.858C260.272 114.527 262.077 113.549 262.755 112.2C264.385 108.956 264.657 105.275 266.627 102.066C269.882 96.763 276.272 92.3535 282.297 90.959C286.387 90.012 291.437 89.8835 295.095 92.185C300.95 95.8687 311.19 118.319 312.802 125.547C310.945 129.556 308.957 131.955 308.565 136.671C307.355 152.105 332.86 155.119 326.147 170.904C322.867 178.613 314.055 173.986 313.632 181.84L313.88 182.115C315.117 181.656 316.2 179.595 316.89 178.454C318.61 179.776 320.845 182.098 320.427 184.624C320.412 184.711 320.007 185.403 319.955 185.413C317.482 185.919 314.54 185.334 312.045 185.698C303.507 186.943 295.692 192.196 288.272 196.185C289.082 194.224 289.78 192.629 290.772 190.786C292.12 188.284 300.677 175.652 298.087 173.396C296.782 174.265 293.655 180.492 292.677 182.219C290.762 185.607 287.81 189.739 286.762 193.39C286.012 195.998 286.395 207.147 288.752 208.643L289.065 208.355C289.745 206.63 289.035 202.768 288.895 200.593C295.142 202.352 301.752 205.908 308.155 207.65C311.35 208.52 313.465 208.773 316.787 209.177C318.322 213.805 324.757 217.896 324.085 225.4C323.845 228.124 322.522 230.637 320.41 232.375C313.532 237.956 302.38 230.899 299.715 233.081L299.902 233.637C303.187 236.78 309.012 236.562 313.257 236.534C303.567 249.567 282.93 251.1 268.002 250.01C266.597 249.907 263.79 249.447 262.767 250.525C262.922 250.88 262.907 251.027 263.177 251.192C271.902 256.43 288.525 252.385 297.84 250.867C289.455 264.322 269.517 261.437 256.39 258.407C253.097 257.647 242.408 253.32 239.75 254.467C239.428 255.127 239.481 254.782 239.631 255.537C242.792 259.86 269.727 263.977 275.585 264.155C278.83 264.25 282.077 263.93 285.242 263.207C292.58 261.525 299.032 255.982 302.95 249.711C307.502 248.618 311.262 247.616 315.325 245.315C315.867 245.008 316.862 244.541 317.472 244.743C315.477 249.711 300.925 253.162 300.985 263.342C301.025 270.62 302.092 274.35 305.255 281.137C306.495 283.797 307.225 287.285 308.775 289.917C312.392 296.43 320.332 298.192 324.865 303.875C328.307 308.165 328.28 312.702 327.765 317.86C324.767 316.467 321.67 314.57 318.5 313.12C315.137 311.582 310.727 309.747 307.627 307.937C304.875 306.115 302.417 303.702 299.67 301.882C289.022 294.817 278.042 288.342 267.222 281.577C262.997 278.937 259.407 274.55 255.422 271.592C249.473 267.177 242.903 263.527 236.758 259.385C232.18 256.305 228.022 253.115 223.626 249.962C218.155 246.038 208.028 242.159 201.46 240.752C203.518 238.259 208.931 230.282 208.116 227.718C206.962 224.086 206.383 221.449 206.702 216.76C206.139 211.51 200.173 208.62 196.879 205.219C195.677 203.977 193.833 201.163 195.161 199.889C196.156 199.968 201.291 203.269 203.153 204.114C207.971 206.301 215.882 209.352 220.806 206.255C222.118 205.43 222.947 201.893 221.583 200.476C219.607 200.721 218.929 203.79 218.437 205.399C212.676 206.212 203.403 202.678 198.444 199.365C190.398 193.99 182.969 176.955 188.978 168.077C191.912 163.742 197.432 162.463 201.827 165.554C202.548 166.149 203.284 166.71 203.908 167.404L205.761 169.392C208.132 171.75 209.982 173.426 213.105 174.767C215.575 175.894 217.905 175.946 219.977 177.834C222.006 179.11 225.228 175.698 226.207 174.81C233.383 168.301 227.846 159.625 231.037 152.503C231.716 150.987 238.382 147.847 240.228 146.261C244.023 143.001 247.075 139.454 249.656 135.053L249.479 132.258C250.017 131.918 252.095 130.608 252.412 130.246C255.01 127.273 255.067 126.235 258.192 123.519Z" fill="white"/>
<path d="M201.827 165.554C202.549 166.149 203.285 166.71 203.908 167.404L205.761 169.392L205.517 169.984C207.208 172.503 206.473 173.725 204.945 176.239C202.071 180.971 197.281 188.296 206.427 189.441C209.586 189.837 212.844 190.455 216.031 189.55C218.324 188.89 217.355 185.61 218.113 183.976C219.102 185.487 219.18 187.549 219.319 189.318C215.267 193.625 209.581 191.882 204.552 190.674C203.297 190.373 200.507 189.191 200.072 187.835C198.548 183.087 201.399 179.062 203.72 175.203C203.933 174.84 204.85 172.216 205.002 171.791C204.078 170.489 203.202 169.198 201.828 168.333C200.425 167.449 198.751 167.046 197.115 167.438C195.203 167.896 193.62 169.319 192.615 170.968C191.168 173.34 191.105 176.053 191.54 178.725C193.641 191.649 204.185 193.88 205.146 197.997L204.914 198.349L204.4 198.343C201.948 197.173 195.956 191.778 194.34 189.395C188.838 181.279 185.878 164.01 201.081 166.342L201.827 165.554Z" fill="#221F20"/>
<path d="M201.827 165.554C202.549 166.149 203.285 166.71 203.908 167.404L203.132 167.566C202.298 166.923 201.995 166.783 201.081 166.342L201.827 165.554Z" fill="#D2DAD8"/>
<path d="M203.908 167.404L205.761 169.393L205.517 169.984C204.956 169.281 203.815 168.232 203.131 167.567L203.908 167.404Z" fill="#757D7F"/>
<path d="M287.233 138.032C291.025 137.598 291.878 138.383 295.293 139.803L298.355 137.853C293.033 151.687 287.17 145.82 277.133 148.865C274.91 149.555 267.908 150.662 265.915 149.51L266.013 149.15C267.388 148.698 270.278 148.114 271.353 147.47C277.703 143.667 279.883 140.287 287.233 138.032Z" fill="#221F20"/>
<path d="M288.502 139.305C289.39 139.292 290.677 139.259 291.34 139.836C290.727 140.544 287.405 141.101 286.222 141.699C282.737 143.459 279.585 146.056 276.075 147.697C275.05 148.066 273.827 148.421 272.772 148.754C273.69 147.744 275.462 146.464 276.597 145.611C280.627 142.584 283.44 140.269 288.502 139.305Z" fill="white"/>
<path d="M286.188 143.494C286.578 143.719 286.415 143.634 286.698 144.106C286.718 144.935 286.828 145.347 286.335 145.987C285.553 146.491 284.243 146.347 283.245 146.341L282.965 146.268L282.915 145.942C283.79 144.959 285.073 144.218 286.188 143.494Z" fill="white"/>
<path d="M289.135 125.642C289.19 125.632 289.245 125.621 289.297 125.61C293.025 124.944 296.862 125.794 299.957 127.973L299.955 131.418C294.845 131.061 295.07 129.575 291.547 128.826C283.725 127.161 273.79 133.414 267.543 137.196C265.42 138.609 262.575 140.732 260.335 142.096C260.007 142.034 259.76 141.988 259.595 141.958C259.398 142.07 259.65 142.177 259.378 142.317C259.703 141.447 260.375 140.688 261.01 140.025C267.505 133.247 279.583 125.959 289.135 125.642Z" fill="#221F20"/>
<path d="M306.973 165.55L308.235 165.513L308.543 165.839C307.965 167.174 299.855 170.262 302.6 173.93C306.868 176.211 312.317 169.611 318.365 174.308L318.37 174.838L318.025 174.992C316.812 174.615 315.235 174.064 313.948 174.103C310.555 174.183 306.038 177.241 302.785 175.631C300.278 174.39 300.363 170.948 301.733 168.863C303.235 166.577 304.408 166.151 306.973 165.55Z" fill="#221F20"/>
<path d="M210.791 226.33C211.188 226.411 211.818 226.58 212.092 226.881C216.252 231.447 220.638 235.446 225.466 239.299C226.135 239.833 226.111 240.189 226.137 240.949C225.954 240.938 225.771 240.923 225.588 240.905C221.238 240.485 213.311 232.211 211.024 228.489C210.654 227.886 210.718 227.029 210.791 226.33Z" fill="#221F20"/>
<path d="M214.446 198.156C216.17 197.719 217.926 198.747 218.389 200.464C218.852 202.182 217.851 203.953 216.141 204.443C215.011 204.766 213.795 204.456 212.958 203.63C212.121 202.805 211.795 201.592 212.103 200.458C212.411 199.324 213.307 198.444 214.446 198.156Z" fill="#221F20"/>
<path d="M214.624 199.606C215.264 199.383 215.974 199.533 216.468 199.997C216.962 200.46 217.156 201.16 216.973 201.812C216.79 202.464 216.259 202.96 215.596 203.098C214.659 203.294 213.731 202.73 213.474 201.807C213.218 200.885 213.721 199.922 214.624 199.606Z" fill="white"/>
<path d="M281.005 153.161C283.563 154.103 282.962 154.188 285.9 154.607C287.727 154.868 292.797 154.193 293.805 154.627L293.925 155.496C290.425 156.378 282.45 157.65 281.005 153.161Z" fill="#221F20"/>
<path d="M305.09 117.334C305.765 117.454 305.745 117.44 306.338 117.772C307.338 119.259 306.89 120.474 305.79 121.708C303.958 120.797 303.725 118.795 305.09 117.334Z" fill="#221F20"/>
<path d="M216.025 192.131C218.361 192.29 218.58 193.639 218.722 195.652C216.618 195.496 216 194.041 216.025 192.131Z" fill="#221F20"/>
<path d="M219.842 190.826C222.052 191.548 221.819 193.399 221.89 195.394C220.174 194.853 219.586 192.422 219.842 190.826Z" fill="#221F20"/>
<path d="M320.155 198.554C320.347 198.56 320.702 198.654 320.887 198.695C321.31 199.657 320.837 200.378 320.772 201.305C320.382 207.01 318.865 207.012 313.685 206.403C309.392 205.898 305.702 204.864 301.69 203.341C299.77 202.555 297.585 201.365 295.71 200.399C304.827 199.622 310.217 200.461 320.155 198.554Z" fill="white"/>
<path d="M320.478 187.819C320.753 187.759 321.09 187.793 321.383 187.8L321.665 188.15C321.668 192.599 311.29 193.013 308.12 193.178C303.893 193.399 300.02 193.725 295.838 194.474C295.633 194.303 295.723 194.375 295.623 194.042C299.948 192.049 306.658 188.227 311.263 188.063C315.385 187.916 315.845 188.987 320.478 187.819Z" fill="white"/>
<path d="M328.14 172.416L328.438 172.773C328.563 176.605 324.165 192.966 322.3 195.807L321.96 195.84C321.645 195.299 321.79 194.688 321.845 194.041C324.115 188.023 324.383 184.071 320.165 178.781C323.553 177.435 325.92 175.195 328.14 172.416Z" fill="white"/>
<path d="M321.57 234.244C322.31 234.149 322.375 234.145 323.107 234.253C323.29 234.421 323.422 234.531 323.532 234.763C323.962 235.646 323.99 236.673 323.605 237.577C322.285 240.623 313.335 244.222 310.062 245.626C309.287 245.873 309.107 246.086 308.46 245.852C309.232 244.73 317.495 237.505 318.93 235.909C319.275 235.526 321.022 234.536 321.57 234.244Z" fill="white"/>
<path d="M314.375 194.394C315.987 194.139 318.997 193.656 320.125 195.066C320.242 195.986 320.332 195.676 319.942 196.409C316.39 198.942 317.315 196.534 315.97 195.349C314.437 195.466 314.967 196.544 313.882 197.689C313.33 197.494 312.91 196.337 312.342 195.574L311.895 195.528C311.127 197.295 310.525 197.838 308.607 198.08C307.942 197.713 307.3 196.186 306.83 195.373L306.372 195.275C305.76 195.855 305.735 196.363 305.532 197.197C305.407 197.953 305.525 197.671 304.98 198.261C301.25 199.64 302.64 196.968 301.65 195.847L301.05 195.819C300.017 196.62 300.847 197.942 299.25 198.541C297.792 198.234 297.455 197.675 297.705 196.211C297.855 196.079 298.037 195.918 298.252 195.728C302.88 194.985 309.925 194.661 314.375 194.394Z" fill="white"/>
<path d="M313.292 129.36C314.462 130.095 314.822 132.084 314.38 133.322C313.995 134.391 313.4 134.522 312.445 134.987L311.88 134.923L311.657 134.604C311.735 132.833 312.605 131.009 313.292 129.36Z" fill="white"/>
<path d="M313.795 140.024C315.03 139.962 316.017 139.828 316.86 140.885C316.51 141.696 316.602 141.447 315.645 141.984C314.21 142.434 313.997 142.636 312.732 142.017L312.585 141.47C312.907 140.675 313.112 140.567 313.795 140.024Z" fill="white"/>
<path d="M312.428 136.26C312.908 136.244 313.418 136.275 313.9 136.293C314.62 136.759 314.468 136.509 314.625 137.199C314.343 138.07 313.9 138.298 313.178 138.839C312.258 139.173 311.97 139.235 311.255 138.593C311.043 137.361 311.503 136.959 312.428 136.26Z" fill="white"/>
<path d="M294.68 196.486C295.59 196.504 295.322 196.364 295.875 196.874L295.892 197.482C295.085 198.796 294.357 198.552 292.938 198.487L292.122 198.397L291.995 198.029C292.697 197.306 293.75 196.917 294.68 196.486Z" fill="white"/>
<path d="M313.907 274.03C314.262 274.02 315.657 273.995 315.887 274.128C318.992 275.92 316.907 282.975 319.922 286.103C322.215 288.48 324.695 288.825 327.29 290.178C331.175 292.198 334.265 295.94 336.32 299.49C338.762 303.713 338.825 317.04 337.46 321.415L336.4 321.265C334.655 319.62 335.65 307.603 334.542 303.843C331.847 294.7 326.795 293.555 319.24 289.473C316.582 288.035 314.665 285.203 314.157 282.265C313.87 280.475 312.925 275.573 313.907 274.03Z" fill="#221F20"/>
<path d="M168.648 265.7C171.829 265.248 173.254 268.983 169.737 270.688C165.68 271.08 165.303 267.773 168.648 265.7Z" fill="#221F20"/>
<path d="M222.146 295.515C222.576 295.493 223.007 295.48 223.438 295.478C227.062 295.48 226.5 298.17 224.38 300.178C220.594 300.63 219.433 298.36 222.146 295.515Z" fill="#221F20"/>
<path d="M212.253 282.988C216.522 283.395 216.484 285.975 213.087 288.033C209.84 288.113 208.723 284.705 212.253 282.988Z" fill="#221F20"/>
<path d="M150.477 262.052C154.288 261.61 156.698 263.585 153.228 266.407C149.804 266.92 147.589 264.455 150.477 262.052Z" fill="#221F20"/>
<path d="M189.262 276.067C190.936 275.957 192.778 275.525 193.385 277.422C193.214 278.412 193.156 278.525 192.603 279.365C189.911 279.827 187.286 279.42 189.262 276.067Z" fill="#221F20"/>
<path d="M353.825 287.358C354.923 286.93 356.158 287.47 356.585 288.568C357.015 289.663 356.473 290.9 355.378 291.33C354.28 291.758 353.043 291.218 352.613 290.12C352.185 289.023 352.728 287.785 353.825 287.358Z" fill="#221F20"/>
<path d="M253.563 293.642C254.713 293.505 255.763 294.312 255.925 295.46C256.085 296.605 255.3 297.672 254.158 297.857C253.398 297.98 252.63 297.682 252.15 297.08C251.67 296.475 251.555 295.66 251.85 294.947C252.143 294.235 252.798 293.735 253.563 293.642Z" fill="#221F20"/>
<path d="M340.085 289.11C341.24 288.977 342.285 289.798 342.433 290.95C342.58 292.1 341.775 293.158 340.623 293.32C339.865 293.428 339.11 293.118 338.643 292.513C338.178 291.905 338.073 291.095 338.373 290.39C338.67 289.685 339.325 289.195 340.085 289.11Z" fill="#221F20"/>
<path d="M346.49 274.305C347.617 274 348.78 274.662 349.092 275.787C349.405 276.912 348.75 278.08 347.625 278.397C346.492 278.72 345.315 278.057 345 276.922C344.685 275.787 345.352 274.612 346.49 274.305Z" fill="#221F20"/>
<path d="M335.602 251.415C336.645 250.908 337.905 251.333 338.425 252.37C338.947 253.408 338.537 254.67 337.505 255.205C336.827 255.555 336.012 255.515 335.372 255.098C334.735 254.68 334.367 253.953 334.415 253.19C334.462 252.428 334.915 251.75 335.602 251.415Z" fill="#221F20"/>
<path d="M265.888 298.005C266.98 297.6 268.193 298.155 268.605 299.245C269.018 300.335 268.473 301.552 267.385 301.97C266.288 302.392 265.055 301.842 264.64 300.742C264.225 299.642 264.785 298.413 265.888 298.005Z" fill="#221F20"/>
<path d="M365.87 260.468C368.87 260.538 369.797 262.723 367.745 264.54C364.525 264.648 363.232 262.768 365.87 260.468Z" fill="#221F20"/>
<path d="M328.69 260.652C329.715 260.195 330.92 260.622 331.427 261.622C331.937 262.622 331.575 263.845 330.602 264.407C329.927 264.797 329.092 264.782 328.43 264.367C327.77 263.955 327.39 263.21 327.445 262.432C327.5 261.655 327.977 260.97 328.69 260.652Z" fill="#221F20"/>
<path d="M327.883 281.585C328.57 281.2 329.415 281.232 330.073 281.667C330.73 282.1 331.09 282.865 331.005 283.65C330.923 284.432 330.408 285.102 329.673 285.387C328.64 285.787 327.478 285.32 327.008 284.32C326.535 283.32 326.918 282.125 327.883 281.585Z" fill="#221F20"/>
<path d="M277.043 305.34C277.72 304.973 278.545 305.008 279.193 305.43C279.838 305.853 280.2 306.595 280.133 307.365C280.068 308.135 279.585 308.805 278.875 309.113C277.845 309.558 276.645 309.113 276.155 308.103C275.663 307.093 276.055 305.875 277.043 305.34Z" fill="#221F20"/>
<path d="M322.135 273.008C325.172 273.135 325.945 275.075 323.67 277.113C320.512 276.653 319.207 274.133 322.135 273.008Z" fill="#221F20"/>
<path d="M353.438 262.025C356.375 261.755 358.143 262.47 356.398 265.55C353.458 266.108 351.823 264.95 353.438 262.025Z" fill="#221F20"/>
<path d="M342.335 304.915C343.355 304.4 344.6 304.798 345.13 305.813C345.66 306.825 345.277 308.078 344.27 308.62C343.607 308.978 342.802 308.95 342.167 308.55C341.53 308.148 341.157 307.435 341.19 306.683C341.225 305.933 341.662 305.258 342.335 304.915Z" fill="#221F20"/>
<path d="M178.496 279.958C180.18 279.755 181.418 280.233 181.712 281.973C181.487 282.848 181.267 282.963 180.603 283.598C177.403 283.978 175.761 282.248 178.496 279.958Z" fill="#221F20"/>
<path d="M350.502 309.778C353.502 309.808 355.087 310.94 352.612 313.62C349.792 313.7 347.962 311.748 350.502 309.778Z" fill="#221F20"/>
<path d="M244.258 307.235C245.2 306.595 246.482 306.833 247.133 307.768C247.784 308.703 247.563 309.985 246.637 310.65C246.027 311.085 245.23 311.16 244.55 310.845C243.87 310.53 243.412 309.873 243.351 309.125C243.291 308.378 243.637 307.655 244.258 307.235Z" fill="#221F20"/>
<path d="M336.27 264.478C336.925 264.08 337.745 264.077 338.405 264.47C339.063 264.86 339.45 265.583 339.415 266.348C339.378 267.115 338.923 267.795 338.23 268.122C337.233 268.592 336.043 268.2 335.52 267.23C334.998 266.26 335.328 265.05 336.27 264.478Z" fill="#221F20"/>
<path d="M253.818 303.995C256.695 303.895 258.423 304.99 256.29 307.74C253.155 307.908 252.01 306.865 253.818 303.995Z" fill="#221F20"/>
<path d="M290.2 312.073C290.952 311.893 291.74 312.145 292.245 312.73C292.75 313.315 292.887 314.132 292.597 314.85C292.31 315.565 291.645 316.062 290.875 316.132C289.797 316.235 288.825 315.485 288.647 314.418C288.47 313.35 289.147 312.325 290.2 312.073Z" fill="#221F20"/>
<path d="M191.579 253.78C192.632 253.95 192.987 254.088 193.615 254.92C194.039 256.748 193.35 257.255 191.731 257.803C190.119 257.258 188.973 256.588 189.627 254.793C190.312 254.053 190.632 254.028 191.579 253.78Z" fill="#221F20"/>
<path d="M352.545 299.51C354.222 299.388 355.302 299.225 356.205 300.823C356.295 301.898 356.187 302.098 355.812 303.058C352.635 303.668 351.557 302.78 352.545 299.51Z" fill="#221F20"/>
<path d="M200.909 290.52C202.493 290.475 204.091 290.217 204.54 292.075C204.337 293.022 204.229 293.125 203.577 293.852C201.978 294.062 200.678 294.38 199.967 292.665C200.002 291.685 200.36 291.312 200.909 290.52Z" fill="#221F20"/>
<path d="M237.71 295.8C238.778 295.518 239.878 296.135 240.194 297.195C240.509 298.253 239.926 299.373 238.878 299.72C238.17 299.955 237.39 299.785 236.844 299.278C236.297 298.773 236.069 298.008 236.249 297.283C236.429 296.56 236.989 295.993 237.71 295.8Z" fill="#221F20"/>
<path d="M359.91 273.58C360.895 273.042 362.13 273.405 362.668 274.39C363.205 275.375 362.843 276.608 361.86 277.148C360.873 277.685 359.638 277.323 359.1 276.338C358.563 275.353 358.925 274.117 359.91 273.58Z" fill="#221F20"/>
<path d="M208.014 258.495C209.578 258.47 211.117 258.345 211.675 260.082C211.545 261.032 211.176 261.305 210.531 261.99C208.117 262.79 206.43 260.9 208.014 258.495Z" fill="#221F20"/>
<path d="M171.146 249.261C174.231 249.342 175.184 251.222 172.333 253C170.861 252.72 169.406 252.475 169.591 250.625C170.103 249.773 170.25 249.716 171.146 249.261Z" fill="#221F20"/>
<path d="M234.279 272.98C235.213 273.152 235.511 273.165 236.304 273.745C237.212 275.312 236.321 276.005 235.101 276.972C233.459 276.607 232.355 276.365 232.551 274.432C233.036 273.557 233.415 273.435 234.279 272.98Z" fill="#221F20"/>
<path d="M203.022 264.983C204.042 264.633 205.154 265.158 205.532 266.168C205.91 267.178 205.416 268.305 204.417 268.71C203.745 268.983 202.979 268.87 202.415 268.415C201.852 267.958 201.58 267.233 201.706 266.52C201.832 265.805 202.336 265.218 203.022 264.983Z" fill="#221F20"/>
<path d="M219.663 268.635C221.908 268.745 223.391 270.835 221.2 272.61C217.831 272.412 217.223 271.108 219.663 268.635Z" fill="#221F20"/>
<path d="M245.147 283.505C245.815 283.27 246.558 283.41 247.092 283.875C247.626 284.34 247.869 285.058 247.727 285.75C247.585 286.445 247.081 287.008 246.407 287.228C245.385 287.558 244.286 287.005 243.941 285.988C243.597 284.97 244.134 283.865 245.147 283.505Z" fill="#221F20"/>
<path d="M183.876 259.202C184.832 259.002 185.779 259.577 186.042 260.52C186.305 261.46 185.792 262.445 184.871 262.767C184.218 262.997 183.491 262.845 182.986 262.372C182.481 261.9 182.282 261.182 182.469 260.517C182.656 259.85 183.198 259.345 183.876 259.202Z" fill="#221F20"/>
<path d="M303.813 320.11C304.72 320.015 305.543 320.645 305.693 321.545C305.843 322.445 305.268 323.305 304.378 323.51C303.753 323.655 303.098 323.44 302.68 322.953C302.26 322.465 302.148 321.785 302.385 321.19C302.623 320.593 303.173 320.178 303.813 320.11Z" fill="#221F20"/>
</g>
<defs>
<clipPath id="clip0_3_12">
<rect width="500" height="326" fill="white"/>
</clipPath>
</defs>
</svg>
