<svg xmlns="http://www.w3.org/2000/svg" viewBox="0 0 900 600"><path fill="#de0000" d="M0 0h900v600H0z"/><g fill="#fff" fill-rule="evenodd" stroke-linecap="round" stroke-linejoin="bevel"><path d="m297.736 250.192 43.607 43.891 35.127-36.576 228.261 229.767 32.543-31.067-234.783-224.303 49.079-43.89-71.466-19.508-82.368 81.686z"/><path d="M477.673 112.725c93.298 62.796 139.994 126.488 144.106 191.084-2.487 143.26-156.872 211.14-253.656 98.61l7.008 7.768c.153-.192-60.39 57.982-71.965 73.033-38.378-38.118-.815-.465-38.3-37.892l85.014-80.575.943.566c101.18 100.056 232.516 2.277 225.298-76.98-7.217-79.256-34.83-106.432-98.448-175.614z"/></g><path fill="#fff" d="M104.176 188.512q-10.537 0-19.487-3.11-8.887-3.11-15.298-9.268-6.41-6.157-9.966-15.361-3.49-9.204-3.49-21.265 0-11.235 3.363-20.376 3.365-9.14 9.776-15.678 6.157-6.284 15.234-9.712 9.14-3.428 19.932-3.428 5.967 0 10.727.698 4.825.635 8.887 1.714 4.253 1.206 7.68 2.73 3.492 1.46 6.095 2.73V121.1h-2.793q-1.778-1.523-4.507-3.618-2.666-2.095-6.094-4.126-3.491-2.031-7.554-3.428-4.062-1.396-8.696-1.396-5.142 0-9.775 1.65-4.634 1.587-8.57 5.332-3.745 3.618-6.094 9.585-2.285 5.967-2.285 14.473 0 8.887 2.476 14.853 2.539 5.967 6.348 9.395 3.872 3.491 8.632 5.015 4.761 1.46 9.395 1.46 4.443 0 8.76-1.334 4.38-1.333 8.061-3.618 3.11-1.84 5.777-3.935 2.666-2.095 4.38-3.618h2.539v22.597q-3.555 1.587-6.792 2.984-3.238 1.396-6.792 2.412-4.634 1.333-8.697 2.031-4.062.698-11.172.698zM144.883 285.297q0 6.348-2.222 12.442-2.221 6.03-6.347 10.156-5.65 5.586-12.632 8.442-6.92 2.857-17.266 2.857h-15.17v30.786H66.87v-94.517h40.117q9.014 0 15.171 1.587 6.221 1.523 10.982 4.634 5.713 3.745 8.696 9.585 3.047 5.84 3.047 14.028zm-25.2.571q0-3.999-2.159-6.855-2.158-2.92-5.014-4.063-3.809-1.523-7.427-1.65-3.618-.19-9.648-.19h-4.19v28.31h6.983q6.22 0 10.22-.762 4.062-.761 6.791-3.046 2.349-2.032 3.365-4.825 1.079-2.856 1.079-6.919zM118.69 513.288H63.338V496.53h15.489v-61H63.338V418.77h55.352v16.758H103.2v61.001h15.489z"/></svg>