<svg width="800" height="577" viewBox="0 0 800 577" fill="none" xmlns="http://www.w3.org/2000/svg">
<g clip-path="url(#clip0_1_145)">
<path d="M0 0H800V291.519V577H0V288.979V0Z" fill="#FE0000"/>
<path d="M0 288.979L120.911 288.93C143.493 288.931 166.98 288.616 189.482 288.98C189.471 291.974 189.536 294.782 189.851 297.763C194.908 345.561 216.416 392.598 250.451 426.949C290.109 467.35 344.238 490.27 400.848 490.626C457.453 490.298 511.586 467.378 551.223 426.96C585.77 392.016 608.406 342.91 612.105 293.775C612.164 293.015 611.875 291.674 611.82 290.787C621.969 290.397 633.734 290.668 644.059 290.665L702.426 290.656H763.996C769.586 290.657 797.672 290.129 800 291.519V577H0V288.979Z" fill="black"/>
<path d="M189.482 288.98C189.43 284.94 188.565 280.337 188.691 276.693C188.939 269.511 189.136 259.911 189.802 252.876C194.844 203.937 216.257 158.133 250.574 122.882C289.894 82.8759 343.429 60.0307 399.516 59.3228C467.176 58.5091 532.141 92.6939 571.535 147.315C598.367 184.239 612.902 228.671 613.078 274.315C613.125 279.33 612.527 285.787 611.82 290.787C611.875 291.674 612.164 293.015 612.105 293.775C608.406 342.91 585.77 392.016 551.223 426.961C511.586 467.378 457.453 490.298 400.848 490.626C344.238 490.27 290.109 467.35 250.451 426.949C216.416 392.598 194.908 345.561 189.851 297.763C189.536 294.782 189.471 291.974 189.482 288.98Z" fill="#FEFE00"/>
<path d="M369.477 335.902C369.903 335.488 370.08 335.342 370.556 335.01L370.992 334.71C371.227 333.563 370.571 325.391 370.37 323.706C369.921 319.954 370.685 310.338 370.193 307.74L368.655 306.982C370.42 305.173 396.66 307.304 401.465 306.112L401.887 304.869L402.484 304.774C402.742 305.643 402.688 305.624 403.281 306.292C403.547 306.287 403.812 306.285 404.078 306.286C405.516 306.298 406.102 306.096 406.875 306.878L406.871 306.884C403.008 308.206 402.484 308.224 402.563 312.666C402.605 314.999 402.598 317.537 402.621 319.888C403.691 320.356 404.824 320.977 405.871 321.518C413.887 325.649 421.465 332.015 424.434 340.757C425.797 345.284 425.605 350.987 426.555 355.464C428.887 366.508 429.113 377.591 430.059 388.523C431.316 403.154 429.883 398.306 425.047 410.057C425.875 415.186 426.555 420.335 427.195 425.488C428.543 436.325 430.445 447.095 431.52 457.967L431.098 458.197C430.605 457.611 430.359 457.275 429.75 456.787C424.676 456.576 419.105 456.959 414.145 456.459C409.984 455.783 399.219 455.318 395.086 456.158C394.809 456.904 394.742 456.947 394.273 457.6C392.086 458.756 375.509 458.44 373.392 457.932C374.633 449.509 373.553 439.168 373.077 430.644C372.797 425.64 372.963 420.018 373.02 414.963C368.936 413.979 365.423 413.682 361.296 412.315C360.728 411.287 360.063 409.799 359.533 408.713C358.755 406.881 361.104 403.084 357.289 401.025C356.224 400.451 354.467 399.275 353.344 398.614L351.039 390.264C351.836 388.681 352.894 386.899 353.774 385.332L350.147 383.608C348.563 379.822 348.828 377.745 347.78 374.89C349.001 371.819 349.64 369.508 350.346 366.303C349.179 365.211 347.194 363.772 345.878 362.762L346.128 362.417C346.852 362.704 346.803 362.708 347.579 362.7C348.01 348.934 346.477 341.027 361.698 336.299C361.662 334.711 361.397 334.365 362.11 333.12C364.078 332.077 366.777 331.878 368.645 333.237C368.684 333.926 368.709 334.615 368.72 335.306L369.477 335.902Z" fill="#FEFEFE"/>
<path d="M361.698 336.299C361.662 334.711 361.397 334.365 362.11 333.12C364.078 332.077 366.777 331.878 368.645 333.237C368.684 333.926 368.709 334.615 368.72 335.306L369.477 335.902L370.687 336.273C371.563 338.152 371.355 351.291 370.946 353.722L370.466 354.285C368.808 354.407 368.487 353.111 367.821 351.714C367.52 352.462 367.629 352.484 367.664 353.369C365.868 353.515 366.954 352.17 365.298 352.763L365.389 353.288C369.635 355.348 371.021 356.791 375.892 356.538C377.122 356.474 379.205 356.95 380.682 356.29C383.658 355.414 394.617 354.237 396.352 357.48L394.297 357.302C394.441 358.206 394.441 357.947 395.336 358.727C396.805 358.552 396.781 358.78 397.824 358.034C398.004 356.873 398.012 355.868 398.047 354.705C398.234 357.887 399.195 358.506 399.652 360.485C400.109 362.47 396.238 369.34 396.152 371.578C396.148 371.755 399.047 374.713 399.402 375.07C398.219 378.736 398.203 381.395 396.297 384.852L391.754 385.36C393.945 386.331 401.109 389.338 402.563 390.829L401.258 391.251C400.723 394.766 400.77 397.458 398.609 400.54C397.594 400.943 398.102 400.919 397.031 400.575C397.547 399.798 398.633 398.712 398.797 398.411C400.039 396.091 400.043 392.958 400.02 390.433C397.684 389.094 393.695 386.805 391.113 386.328C381.652 384.583 370.465 388.261 360.816 387.387C359.322 387.252 356.034 386.079 354.489 385.581L351.943 390.255C352.552 392.434 353.586 395.731 354.023 397.86C360.835 403.001 364.95 402.22 373.198 402.775C377.064 403.037 380.829 403.431 384.738 402.916C388.401 402.474 392.309 400.552 395.965 400.24C396.766 400.997 396.738 401.025 397.246 401.943L396.965 402.224C393.937 400.872 388.137 403.705 383.408 404.103C376.334 404.701 367.006 402.537 360.873 403.291C360.668 405.693 360.843 405.756 360.036 408.107L359.533 408.713C358.755 406.881 361.104 403.084 357.289 401.025C356.224 400.45 354.467 399.275 353.344 398.614L351.039 390.264C351.836 388.681 352.894 386.899 353.774 385.332L350.147 383.608C348.563 379.822 348.828 377.745 347.78 374.89C349.001 371.819 349.64 369.508 350.346 366.303C349.179 365.211 347.194 363.772 345.878 362.761L346.128 362.417C346.852 362.704 346.803 362.708 347.579 362.7C348.01 348.934 346.477 341.027 361.698 336.299Z" fill="#FEFEFE"/>
<path d="M350.346 366.303C349.179 365.211 347.194 363.772 345.878 362.761L346.128 362.417C346.852 362.704 346.803 362.708 347.579 362.7C348.01 348.934 346.477 341.027 361.698 336.299C359.485 339.449 350.419 340.755 350.029 345.749C349.805 348.604 348.033 360.309 348.55 362.147C351.308 371.941 372.097 371.973 379.166 371.244C384.175 370.727 392.016 368.168 394.504 368.83C382.857 372.658 369.773 373.888 357.657 370.629C355.022 369.921 353.344 368.489 351.242 366.804C350.012 371.34 348.063 377.287 350.57 381.733C351.941 384.163 354.967 385.013 357.509 385.615C364.932 387.376 387.617 385.008 395.73 383.846C397.129 380.559 397.34 378.382 398.219 375.018C397.207 374.049 396.082 372.921 395.035 372.013C392.949 371.935 391.023 372.001 389.075 371.27L389.129 371.002C390.641 370.85 394.781 371.013 395.254 370.727C396.402 367.348 399.137 362.068 398.172 359.545C397.234 358.763 396.621 358.854 395.336 358.727C396.805 358.552 396.781 358.78 397.824 358.034C398.004 356.873 398.012 355.868 398.047 354.705C398.234 357.887 399.195 358.506 399.652 360.485C400.109 362.47 396.238 369.34 396.152 371.578C396.148 371.755 399.047 374.713 399.402 375.07C398.219 378.736 398.203 381.395 396.297 384.852L391.754 385.36C393.945 386.331 401.109 389.338 402.563 390.829L401.258 391.251C400.723 394.766 400.77 397.458 398.609 400.54C397.594 400.943 398.102 400.919 397.031 400.576C397.547 399.798 398.633 398.712 398.797 398.411C400.039 396.091 400.043 392.958 400.02 390.433C397.684 389.094 393.695 386.805 391.113 386.328C381.652 384.583 370.465 388.261 360.816 387.387C359.322 387.252 356.034 386.079 354.489 385.581L351.943 390.255C352.552 392.434 353.586 395.731 354.023 397.86C360.835 403.001 364.95 402.22 373.198 402.775C377.064 403.037 380.829 403.431 384.738 402.916C388.401 402.474 392.309 400.552 395.965 400.24C396.766 400.997 396.738 401.025 397.246 401.943L396.965 402.224C393.937 400.872 388.137 403.705 383.408 404.103C376.334 404.701 367.006 402.537 360.873 403.291C360.668 405.693 360.843 405.756 360.036 408.107L359.533 408.713C358.755 406.881 361.104 403.084 357.289 401.025C356.224 400.451 354.467 399.275 353.344 398.614L351.039 390.264C351.836 388.681 352.894 386.899 353.774 385.332L350.147 383.608C348.563 379.822 348.828 377.745 347.78 374.89C349.001 371.819 349.64 369.508 350.346 366.303Z" fill="black"/>
<path d="M360.036 408.107C360.843 405.756 360.668 405.693 360.873 403.291C367.006 402.537 376.334 404.701 383.408 404.103C388.137 403.705 393.937 400.872 396.965 402.224L397.246 401.943C397.789 402.412 399.148 403.275 398.945 404.072C397.273 410.666 396.625 417.862 396.492 424.683C396.297 434.695 395.156 444.778 394.738 454.728C402.449 454.736 408.32 454.713 415.992 455.584L415.633 456.146L414.145 456.459C409.984 455.783 399.219 455.318 395.086 456.158C394.809 456.904 394.742 456.947 394.273 457.6C392.086 458.756 375.509 458.44 373.392 457.932C374.633 449.509 373.553 439.168 373.077 430.644C372.797 425.64 372.963 420.018 373.02 414.963C368.936 413.979 365.423 413.682 361.296 412.315C360.728 411.287 360.063 409.799 359.533 408.713L360.036 408.107Z" fill="black"/>
<path d="M360.036 408.107C360.843 405.756 360.668 405.693 360.873 403.291C367.006 402.537 376.334 404.701 383.408 404.103C388.138 403.705 393.938 400.872 396.965 402.224C398.664 404.795 397.086 406.607 396.164 409.541C385.977 414.963 373.1 414.409 362.113 411.873L360.036 408.107Z" fill="#FEFEFE"/>
<path d="M369.477 335.902C369.903 335.488 370.08 335.342 370.556 335.01L370.992 334.71C371.227 333.563 370.571 325.391 370.37 323.706C369.921 319.954 370.685 310.338 370.193 307.74L368.655 306.982C370.42 305.173 396.66 307.304 401.465 306.112L401.887 304.869L402.484 304.774C402.742 305.643 402.688 305.624 403.281 306.292C403.547 306.287 403.812 306.285 404.078 306.286C405.516 306.298 406.102 306.096 406.875 306.878L406.871 306.884C403.008 308.206 402.484 308.224 402.563 312.666C402.605 314.999 402.598 317.537 402.621 319.888C403.691 320.356 404.824 320.977 405.871 321.518L405.32 322.032L403.57 321.339C401.707 322.536 403.512 322.731 401.797 322.526L401.793 322.001C401.789 321.389 401.77 321.24 401.625 320.626C396.543 318.768 391.215 316.207 386.062 314.524C382.261 313.283 376.102 316.725 374.782 320.483C375.877 326.48 383.654 329.803 387.838 333.544C391.52 336.834 395.684 340.731 398.211 345.001C398.305 345.155 397.844 346.436 397.664 346.564C396.77 348.613 397.902 352.275 398.047 354.705C398.012 355.868 398.004 356.873 397.824 358.034C396.781 358.78 396.805 358.552 395.336 358.727C394.441 357.947 394.441 358.206 394.297 357.302L396.352 357.48C394.617 354.237 383.658 355.414 380.682 356.29C379.205 356.95 377.122 356.474 375.892 356.538C371.021 356.791 369.635 355.348 365.389 353.288L365.298 352.763C366.954 352.17 365.868 353.515 367.664 353.369C367.629 352.484 367.52 352.462 367.821 351.715C368.487 353.111 368.808 354.407 370.466 354.285L370.946 353.722C371.355 351.291 371.563 338.152 370.688 336.273L369.477 335.902Z" fill="black"/>
<path d="M405.871 321.518C413.887 325.649 421.465 332.015 424.434 340.757C425.797 345.284 425.605 350.987 426.555 355.464C428.887 366.508 429.113 377.591 430.059 388.523C431.316 403.154 429.883 398.306 425.047 410.057C425.875 415.186 426.555 420.335 427.195 425.488C428.543 436.325 430.445 447.095 431.52 457.967L431.098 458.197C430.605 457.611 430.359 457.275 429.75 456.787C424.676 456.576 419.105 456.959 414.145 456.459L415.633 456.146L415.992 455.584C418.43 455.342 427.641 455.568 430.016 455.725C429.098 442.098 426.187 426.308 424.441 412.549C422.516 413.913 418.262 416.456 415.988 416.995L415.746 416.682C417.477 414.768 422.098 414.381 423.727 410.697C424.402 408.592 429.578 400.49 429.551 398.962C429.293 384.434 427.934 368.876 425.422 354.546C424.555 349.59 424.555 344.138 423.297 340.366C420.395 331.661 412.746 326.268 405.32 322.032L405.871 321.518Z" fill="#2C2803"/>
<path d="M471.238 88.9549C471.582 89.4038 472.727 118.078 472.262 120.537C471.602 124.013 469.27 125.942 468.527 128.642C468.484 128.795 468.695 129.496 468.734 129.654L468.813 129.963C467.152 131.15 459.961 134.58 457.574 135.775L431.27 148.903C399.703 165.424 367.942 181.58 335.998 197.365L335.137 194.394C333.546 188.88 331.674 183.657 330.015 178.201C328.447 173.041 329.457 172.688 331.745 168.662L331.473 168.71C356.821 156.045 383.136 141.472 408.277 128.257L453.957 104.114C458.285 101.778 462.734 99.7398 466.98 97.2978C468.547 94.5026 469.84 91.8313 471.238 88.9549Z" fill="black"/>
<path d="M463.965 142.205L464.371 142.473C464.805 143.409 464.652 145.363 464.379 146.351C461.277 157.634 457.824 169.015 454.645 180.265C448.773 183.819 436.652 189.425 430.184 192.657L381.924 216.776L356.841 229.332C354.145 230.701 351.495 232.27 348.837 233.685C348.436 233.898 348.273 233.653 347.695 233.365C346.593 232.052 346.272 229.951 345.855 228.237C342.467 218.126 339.726 212.793 339.708 202.132C353.759 194.932 368.291 188.26 382.572 181.499C409.898 168.811 437.035 155.712 463.965 142.205Z" fill="black"/>
<path d="M334.654 254.085C368.669 253.572 403.582 254.085 437.687 254.007C433.117 262.545 428.797 271.518 424.441 280.199C422.277 284.687 420.047 289.142 417.75 293.563C411.75 293.011 401.812 293.299 395.492 293.302L355.486 293.293C353.272 288.563 337.407 256.96 334.654 254.085Z" fill="black"/>
<path d="M450.938 191.435L451.316 191.525C449.719 197.683 447.555 203.688 445.945 209.806C445.109 213.019 440.883 214.127 438.16 215.384C421.734 222.964 404.574 229.73 388.286 237.547C395.086 237.271 403.105 237.453 409.992 237.451L445.527 237.516C452.648 241.524 452.25 245.317 445.609 249.575C439.145 249.889 430.805 249.652 424.223 249.65L384.18 249.637C365.155 249.651 345.508 249.916 326.532 249.572C319.567 245.545 319.671 241.636 326.501 237.526C337.067 237.175 349.091 237.451 359.769 237.449C362.462 235.53 368.445 232.634 371.469 231.126L389.812 222.02L450.938 191.435Z" fill="black"/>
<path d="M359.759 295.086C367.783 294.611 377.996 295.175 386.258 294.99C395.207 295.076 404.199 294.802 413.137 295.122C415.465 295.205 421.188 295.636 421.73 298.511C421.863 299.193 421.703 299.899 421.285 300.456C420.125 302.037 417.223 302.371 415.332 302.761C399.934 303.416 383.964 302.458 368.513 302.89C364.118 303.013 354.987 303.561 352.221 299.89C351.439 295.759 356.848 295.51 359.759 295.086Z" fill="black"/>
</g>
<defs>
<clipPath id="clip0_1_145">
<rect width="800" height="577" fill="white"/>
</clipPath>
</defs>
</svg>
