<svg width="610" height="407" viewBox="0 0 610 407" fill="none" xmlns="http://www.w3.org/2000/svg">
<g clip-path="url(#clip0_2_5)">
<path d="M0 0H610V407H0V0Z" fill="#DE0000"/>
<path d="M304.124 94.4538C306.912 94.4711 309.655 94.4046 312.414 94.8137C313.644 94.96 314.832 95.1018 316.071 95.1981C317.939 95.3998 322.698 95.8491 324.331 96.4828C325.638 96.8013 327.095 97.1917 328.399 97.455C329.716 97.8445 335.16 99.5821 336.096 99.6751C337.138 100.126 338.875 100.941 339.911 101.191C342.741 102.266 344.906 103.52 347.354 104.496C348.48 105.124 349.666 105.827 350.848 106.328C352.805 107.458 356.165 109.655 357.934 110.559C358.756 111.204 360.371 112.537 361.202 113.009C363.715 114.707 365.27 115.982 367.596 117.953C368.675 118.924 369.813 119.991 370.912 120.924C373.017 122.946 374.626 124.576 376.574 126.748C377.455 127.765 378.423 128.944 379.394 129.851C381.018 131.993 382.814 134.279 384.354 136.457C385.134 137.483 386.048 138.755 386.859 139.725C388.324 142.092 389.837 144.45 391.109 146.925C391.794 148.101 392.509 149.39 393.271 150.504C394.198 152.531 395.949 156.107 396.619 158.083C397.152 159.412 397.605 160.611 398.299 161.869C398.91 163.642 400.551 168.112 400.849 169.754C401.221 170.919 401.781 172.873 402.222 173.946C402.797 176.485 403.431 179.326 403.902 181.877C404.128 183.215 404.354 184.813 404.676 186.105L405.576 194.514L405.838 198.751C405.876 201.504 405.984 204.58 405.906 207.304C405.861 208.594 405.781 210.014 405.775 211.292L404.864 219.908C404.646 221.137 404.417 222.31 404.322 223.556C403.976 225.706 403.312 230.369 402.57 232.166C402.07 233.788 401.784 234.811 401.465 236.472C400.539 239.084 399.773 241.742 398.817 244.328C398.222 245.734 397.805 246.75 397.358 248.205C396.181 250.76 395.029 253.326 393.903 255.903C393.093 257.316 392.518 258.319 391.874 259.808L387.588 266.962C386.778 268.091 385.834 269.328 385.185 270.538C383.823 272.329 381.149 275.529 380.047 277.196C379.123 278.173 378.057 279.23 377.295 280.316C375.007 282.854 373.804 284.058 371.239 286.34C370.197 287.204 369.166 288.006 368.267 289.016C366.024 290.899 363.981 292.413 361.601 294.127C360.534 294.763 359.12 295.541 358.226 296.339C355.388 298.183 352.483 299.926 349.52 301.561C348.343 302.184 347.018 302.816 345.981 303.638C344.686 304.261 339.691 306.692 338.419 306.945C337.236 307.398 335.926 307.866 334.77 308.358C332.653 309.049 330.514 309.785 328.358 310.339L324.465 311.26C321.629 311.802 318.936 312.332 316.071 312.702L312.408 312.916C309.381 313.19 307.016 313.265 303.969 313.301L300.002 313.155C297.252 313.056 294.472 312.645 291.737 312.3C290.859 312.025 288.814 311.71 287.82 311.528C284.955 311.051 282.65 310.467 279.866 309.686C278.224 308.986 277.689 308.846 275.928 308.48C274.603 308.152 269.74 306.224 268.24 305.628C266.811 304.779 266.295 304.451 264.73 303.927C262.546 302.968 259.814 301.32 257.4 300.206C256.057 299.079 255.464 298.728 253.928 297.85C251.769 296.468 249.525 294.751 247.259 293.283C246.302 292.323 245.11 291.448 244.032 290.608C242.457 289.46 239.822 286.756 237.931 285.244C237.166 284.093 236.002 283.03 235.006 282.046C233.314 280.35 231.149 277.773 229.612 275.914C228.782 274.658 228.006 273.713 227.056 272.545C225.647 270.523 223.71 267.898 222.459 265.848C221.863 264.663 220.886 263.195 220.161 262.039C219.458 260.442 217.366 256.768 216.462 255.02C215.893 253.632 215.091 252.248 214.365 250.924C213.502 248.507 212.578 246.112 211.596 243.741C211.127 242.07 210.748 240.978 210.115 239.357C209.47 236.755 208.847 234.102 208.093 231.532C207.793 230.101 207.415 228.655 207.061 227.234C206.386 224.58 205.987 220.901 205.667 218.152L205.337 214.96C205.103 212.226 204.91 209.489 204.758 206.749C204.838 205.536 204.765 203.605 204.753 202.334C204.752 199.333 204.892 197.04 205.138 194.042C205.402 192.723 205.501 190.992 205.616 189.621C206.136 187.051 206.494 184.224 206.873 181.609L207.803 177.802L209.847 169.437L211.262 165.48C212.144 162.835 213.2 160.238 214.222 157.642C214.834 156.48 215.489 154.889 216.036 153.658C217.327 151.21 218.588 148.747 219.818 146.268C220.626 145.184 221.393 143.84 222.102 142.668C223.484 140.813 225.382 137.699 226.705 135.681C227.837 134.477 228.356 133.709 229.297 132.334C231.152 130.249 232.976 128.136 234.77 125.999C235.696 125.228 236.772 124.011 237.62 123.106C239.667 121.117 241.782 119.198 243.959 117.353C245.1 116.465 245.947 115.689 247.008 114.706C247.82 114.308 252.577 110.858 254.052 109.937C255.136 109.283 256.322 108.463 257.393 107.759C259.871 106.57 262.129 105.209 264.873 103.927L268.199 102.348C271.592 101.004 272.462 100.369 276.127 99.3619L279.951 98.1269C282.389 97.4813 285.757 96.8741 287.966 96.1509L291.814 95.533C295.235 95.1301 298.665 94.8233 302.105 94.6129L304.124 94.4538Z" fill="black"/>
<path d="M303.305 99.0488C326.15 98.2625 349.395 107.448 366.411 122.544C387.615 141.665 400.357 168.428 401.835 196.945C404.077 235.887 387.332 273.671 353.964 294.926C339.759 303.975 325.168 308 308.467 308.936C283.495 309.243 261.488 301.097 243.044 284.084C222.228 264.551 209.985 237.573 208.988 209.041C206.707 152.821 244.96 101.435 303.305 99.0488Z" fill="#DE0000"/>
<path d="M271.593 140.072C273.716 138.568 277.084 136.082 279.296 135.067C288.245 130.964 299.234 129.475 308.941 131.155C313.715 131.98 317.51 133.54 321.805 135.571C339.458 132.085 346.726 136.547 358.628 148.746C367.147 144.172 377.193 144.941 385.953 148.26C383.692 151.082 381.84 152.145 379.898 154.979C377.482 158.503 377.81 164.299 375.484 167.275C374.626 168.373 370.259 169.933 369.521 171.756L369.887 172.198C372.574 172.42 381.104 166.177 384.479 164.412C382.778 167.102 381.012 168.598 378.897 170.941C380.419 176.522 380.836 176.992 385.08 181.021C383.359 182.357 380.595 184.027 379.865 186.06L380.38 186.783C384.196 186.626 384.083 185.836 387.225 184.533C386.12 185.907 384.705 187.317 384.092 188.87L384.127 189.172C384.964 189.342 390.302 186.719 391.645 186.237C389.772 187.965 381.694 193.793 381.619 195.554C383.058 196.108 386.462 195.165 388.226 195.317C389.471 195.423 390.483 195.823 391.66 196.239C389.533 197.207 384.69 199.359 383.716 201.4C383.877 203.87 387.725 204.212 389.76 204.5C387.91 205.655 382.653 208.047 382.03 209.302C383.901 210.261 389.977 207.764 392.041 207.03C388.258 209.845 385.11 211.162 381.652 213.497C384.64 216.279 384.5 215.474 387.654 216.937C384.747 216.94 382.882 216.815 379.981 216.282C382.233 218.549 384.976 221.189 386.754 223.781C382.647 221.601 381.476 218.829 376.988 216.425C378.638 219.456 382.257 224.186 384.357 227.198C383.24 226.604 378.888 223.882 378.224 223.727L377.819 224.068C377.577 227.955 384.696 230.649 387.895 231.253C381.357 231.596 379.105 232.628 384.389 238.56C382.793 238.699 380.812 238.937 379.248 238.824C376.794 239.742 377.455 243.489 374.879 240.46L374.772 240.852C373.923 243.89 372.356 243.534 371.588 245.669C372.085 247.02 373.101 247.245 374.477 247.906L380.234 246.887C376.443 249.986 372.24 251.255 368.699 254.475C366.551 256.427 366.322 260.907 364.168 262.716C363.236 263.498 362.363 262.38 360.505 263.415L360.603 263.833C361.449 264.11 362.676 264.363 363.156 265.029C362.205 266.637 360.725 266.321 359.072 266.501C359.438 267.864 360.159 269.977 360.007 271.288C358.989 272.508 356.43 271.998 354.839 271.919L354.583 272.283C355.099 273.128 355.557 273.825 356.114 274.635L355.897 274.781C353.213 273.906 351.122 273.193 348.525 272.104C351.629 276.847 349.273 276.065 351.23 281.476C349.568 280.287 347.801 278.738 346.077 277.855L345.57 277.953C345.561 279.025 346.008 279.389 346.666 280.403C346.687 282.749 343.033 283.318 341.162 283.268C340.361 283.947 339.423 284.578 339.03 285.502C337.707 285.593 336.495 285.294 335.396 284.557C334.66 284.61 334.303 284.555 333.734 285.012C334.416 286.632 335.711 287.517 336.811 288.941C334.901 288.192 333.915 287.779 332.143 286.768C326.767 292.525 320.456 291.146 313.614 291.094C313.956 292.186 314.621 293.872 314.484 294.914C313.072 295.203 313.516 294.247 311.568 294.734L311.446 295.149C312.166 296.294 313.507 298.052 313.551 299.294L313.191 299.586C311.282 298.54 310.436 295.962 308.038 295.928C307.952 296.537 309.072 299.074 309.396 300.104C307.347 298.743 306.617 298.233 304.809 296.467C302.838 298.066 303.868 298.254 303.404 300.283C303.061 300.474 302.671 300.623 302.307 300.778C300.398 300.581 299.278 298.823 298.015 297.349C296.966 298.329 297.009 299.306 296.047 299.803C295.697 298.838 295.876 298.075 295.974 297.036C294.804 297.516 294.602 297.914 293.199 298.305C291.363 298.099 289.843 295.242 288.017 293.255C288.309 294.591 289.368 297.379 288.718 298.618C287.848 297.78 287.537 297.283 286.338 297.366C285.496 298.075 285.317 299.166 284.971 300.274C283.771 298.159 282.294 295.4 279.573 295.896C278.543 296.545 278.339 297.37 277.836 298.516C276.725 297.163 275.833 295.844 274.845 294.41C273.61 295.599 273.232 296.152 272.242 297.576C270.61 295.58 269.807 294.655 268.788 292.274C266.399 295.032 263.942 296.418 261.824 292.326C261.017 290.958 260.857 290.414 260.364 288.893L260.13 289.444L259.521 289.14C258.256 286.957 257.524 286.173 255.49 284.705C255.355 284.608 255.487 283.158 254.633 282.084C253.61 281.812 253.4 282.157 252.22 282.651L251.841 282.359C251.846 281.481 251.828 280.603 251.786 279.725C250.339 279.272 249.942 280.38 248.652 279.86C248.59 279.218 250.097 275.259 250.44 274.03C247.961 275.799 245.589 277.772 242.825 279.013C243.772 277.367 246.211 274.373 246.489 272.81L246.127 272.382C244.713 272.369 243.641 273.175 242.331 273.878C243.266 272.05 245.958 268.45 246.475 267.133C245.805 266.973 245.229 266.817 244.569 266.623C243.535 266.612 243.348 266.632 242.416 266.205C241.413 266.29 241.034 266.373 240.044 266.161L239.756 265.646C240.177 264.09 241.662 263.266 242.707 260.846L242.859 260.486C241.307 261.19 240.27 261.843 238.574 261.564L238.389 261.116C239.099 260.12 240.125 259.755 241.246 259.184C240.674 257.293 238.201 256.723 237.667 255.05L238.068 254.366C238.884 252.516 240.593 251.067 241.76 248.661L241.54 248.312C238.93 248.785 237.15 249.779 234.763 250.884C236.286 247.643 239.237 244.072 241.08 240.184C235.51 239.365 234.717 239.721 229.823 242.317C230.986 238.799 233.203 234.563 235.891 231.988C236.025 230.425 236.469 228.395 236.766 226.814C235.644 226.961 234.738 227.137 233.652 227.435C232.029 227.88 228.67 230.064 227.174 229.67C227.241 228.954 231.704 223.715 232.578 222.575C233.442 215.535 232.139 217.633 227.842 213.276C229.178 213.241 231.581 213.284 232.759 212.906C232.892 211.457 232.523 210.31 232.353 208.927C231.895 205.205 229.636 208.245 227.074 207.089C226.606 206.247 226.367 205.16 227.135 204.468L229.084 204.625C230.39 203.989 230.869 200.91 231.666 199.558C232.452 198.226 233.468 196.95 234.399 195.738C232.084 195.951 230.071 196.316 227.797 195.927L227.556 195.546C229.212 193.15 233.035 193.206 232.805 189.5C232.394 189.487 232.16 189.343 231.762 189.186C230.607 190.655 229.899 191.108 228.079 191.481L227.48 191.326C227.79 189.852 231.486 187.418 231.854 185.184C230.511 184.302 227.052 186.946 225.809 187.624C228.189 183.863 231.026 181.492 233.736 178.115C231.114 176.643 228.614 175.267 226.102 173.614C228.088 174.13 232.954 175.83 234.569 175.269C235.378 173.716 233.046 172.384 232.592 170.352L232.843 170.152C233.754 170.829 235.703 172.467 236.651 172.658L237.017 172.395C237.058 170.852 236.863 170.82 235.63 169.803C235.305 168.491 236.14 168.398 235.758 167.112C235.137 165.024 230.422 163.006 229.887 161.925C230.926 161.259 232.428 161.421 233.72 161.41C232.467 160.389 231.317 159.437 229.982 158.513C229.139 153.88 228.964 149.814 229.321 145.109C229.307 145.289 228.564 143.488 228.512 143.333C228.822 143.024 228.772 142.912 229.254 142.997C232.985 143.65 236.747 144.493 240.513 144.995C244.911 145.581 248.702 147.113 252.71 148.895C256.942 142.24 263.905 139.377 271.593 140.072Z" fill="black"/>
<path d="M239.461 184.213C239.871 185.638 240.1 186.115 239.824 187.576L240.068 187.803L240.133 187.78C240.33 188.37 240.678 189.459 240.993 189.965C241.552 190.862 243.102 191.149 243.114 192.127C242.361 192.779 241.929 193.015 241.066 193.518C241.941 194.568 243.123 195.793 243.498 197.065C243.04 199.774 238.567 199.35 239.753 202.809C238.981 204.377 233.553 205.44 231.769 205.901C233.576 201.751 234.861 196.784 238.165 193.784C236.966 193.565 236.035 193.562 235.246 192.707C234.213 190.294 236.022 189.967 234.506 189.196C233.927 189.287 233.374 189.357 232.805 189.5C232.394 189.486 232.16 189.343 231.762 189.186C233.82 186.478 236.421 185.593 239.461 184.213Z" fill="#FCE612"/>
<path d="M259.814 283.185C261.979 281.859 263.06 280.859 264.958 279.568C265.408 280.683 266.307 282.56 266.575 283.67C266.673 284.075 265.649 285.61 265.975 286.155C267.416 285.634 269.901 284.512 271.253 285.093C272.02 286.223 271.272 288.031 271.08 289.674C272.061 288.88 272.739 288.124 273.945 288.014C276.249 289.181 273.61 293.125 271.922 293.933C270.058 293.545 271.264 290.088 268.688 288.754C266.289 288.398 263.517 290.801 261.824 292.326C261.017 290.958 260.857 290.414 260.364 288.893C261.293 288.348 261.937 288.13 262.335 287.165C262.213 285.319 261.009 284.748 259.814 283.185Z" fill="#FCE612"/>
<path d="M238.068 254.366C239.637 254.433 241.966 253.884 243.572 253.574C242.812 254.474 241.47 255.881 241.138 256.923C241.958 257.139 245.078 255.532 247.321 255.361C245.551 256.607 243.192 258.341 241.246 259.184C240.674 257.293 238.201 256.723 237.667 255.05L238.068 254.366Z" fill="#A90D03"/>
<path d="M242.416 266.205C244.768 264.068 247.939 259.698 249.449 258.651L249.767 258.672C249.789 261.534 246.717 264.962 244.569 266.623C243.535 266.612 243.348 266.632 242.416 266.205Z" fill="#FCE612"/>
<path d="M336.441 283.856C335.926 283.114 335.527 282.734 335.557 281.875C336.224 281.715 337.835 282.447 338.89 282.682L339.122 282.732L341.162 283.268C340.361 283.947 339.423 284.578 339.03 285.502C337.707 285.593 336.495 285.294 335.396 284.557C335.911 284.331 336 284.204 336.441 283.856Z" fill="#A90D03"/>
<path d="M336.441 283.856C337.564 284.334 338.336 284.521 339.03 285.502C337.707 285.593 336.495 285.294 335.396 284.557C335.911 284.331 336 284.204 336.441 283.856Z" fill="#150506"/>
<path d="M339.122 282.732C340.409 282.858 341.222 283.107 342.211 282.32C342.19 281.581 342.103 281.167 342.455 280.519C344.748 279.167 344.045 280.805 346.101 281.081L346.666 280.403C346.687 282.749 343.033 283.318 341.162 283.268L339.122 282.732Z" fill="#150506"/>
<path d="M239.461 184.213C241.194 183.318 242.941 182.372 244.746 181.642C243.525 183.292 240.832 186.248 240.133 187.78L240.068 187.803L239.824 187.576C240.1 186.115 239.871 185.638 239.461 184.213Z" fill="#FCE612"/>
<path d="M375.766 237.792C376.973 238.339 377.962 238.524 379.248 238.824C376.794 239.742 377.455 243.489 374.879 240.46L375.766 237.792Z" fill="#A90D03"/>
<path d="M301.724 293.348C302.683 294.22 303.877 295.513 304.809 296.467C302.838 298.066 303.868 298.254 303.404 300.283C302.927 297.598 302.495 295.969 301.724 293.348Z" fill="#A90D03"/>
<path d="M295.974 297.036C296.574 296.23 296.335 296.277 297.071 296.149C297.659 296.657 297.644 296.701 298.015 297.349C296.966 298.329 297.009 299.306 296.048 299.803C295.697 298.838 295.876 298.075 295.974 297.036Z" fill="#2D080A"/>
<path d="M332.143 286.768C333.007 286.083 333.204 285.965 333.734 285.012C334.416 286.632 335.711 287.517 336.811 288.941C334.901 288.192 333.915 287.779 332.143 286.768Z" fill="#150506"/>
<path d="M275.662 142.065C283.125 135.413 294.538 133.651 304.252 134.552C307.398 134.843 318.525 136.47 320.593 138.206L320.619 138.687C319.785 139.641 319.333 140.017 318.371 140.824C319.583 141.433 321.26 140.644 322.675 140.212C330.565 137.235 333.933 137.122 342.443 140.327C343.056 140.558 343.855 141.079 344.418 141.454C344.623 147.773 346.887 144.618 350.187 149.73C348.897 150.038 346.967 150.364 345.967 151.102L345.743 151.724C346.145 152.571 346.22 152.595 346.949 153.22C347.956 153.792 348.043 153.904 348.638 154.902C346.938 156.277 345.216 155.881 343.482 156.942L343.56 157.467C345.564 158.855 348.564 158.723 349.356 159.994C348.844 162.117 345.916 162.307 346.666 164.201C348.984 164.533 350.431 163.477 351.787 164.917C351.072 166.268 349.538 165.324 349.019 166.75C350.19 169.161 355.012 171.675 354.726 175.124C354.205 175.567 353.848 175.571 353.18 175.705C352.787 176.723 353.115 177.543 353.499 178.579C352.883 179.104 350.947 179.373 350.059 179.55C348.725 181.369 347.497 181.39 346.75 182.302C346.068 182.951 346.032 183.045 345.147 183.212C341.71 181.747 338.196 187.797 336.787 182.703C336.114 180.277 337.636 179.715 339.238 178.011L338.913 176.895L335.586 178.698L335.461 177.081C334.449 176.8 331.187 176.523 329.987 176.393L336.34 172.068L335.333 171.39L335.432 169.7L335.05 169.281C333.796 169.704 331.565 172.856 329.403 174.443C324.902 173.026 318.228 169.121 313.611 170.565C311.675 171.172 311.639 174.432 310.439 175.619C310.263 175.777 307.43 176.465 306.945 176.583C307.588 178.101 308.354 179.657 308.562 181.275L308.592 181.51C308.607 181.66 308.622 181.81 308.637 181.961L308.208 183.457C308.863 183.942 309.209 183.839 310.102 183.948C307.764 184.18 304.762 185.284 303.213 185.198L303.07 184.718C304.089 182.583 305.259 181.523 306.742 179.674L303.916 177.35C303.314 178.321 302.754 179.453 302.218 180.471C301.473 182.365 300.589 184.329 300.428 186.359C299.701 187.067 298.748 187.774 298.593 188.694C299.058 189.861 298.951 190.201 298.718 191.385C297.682 192.745 297.858 192.09 298.102 193.882L297.396 193.884L297.223 194.197C293.426 193.066 293.499 193.103 289.76 194.775C285.238 197.329 281.43 194.292 277.28 192.666L277.068 192.584C277.539 191.923 277.998 191.255 278.445 190.578C280.301 187.76 286.762 176.885 285.435 173.289C284.621 171.084 284.439 170.468 283.923 167.956C282.535 167.504 281.53 166.593 280.448 165.655C278.625 163.789 277.527 161.066 275.145 160.589C274.003 160.715 273.564 161.193 272.634 161.889L269.68 160.338C267.523 160.604 266.413 161.249 264.467 161.789C263.92 161.941 262.783 160.587 261.381 160.611L260.958 161.052C260.99 162.662 261.858 163.5 263.423 163.923C267.765 162.299 277.246 166.41 280.605 169.341C281.454 170.082 280.747 171.917 279.899 172.627C277.409 172.879 277.376 169.871 274.63 168.284C271.22 166.314 266.249 167.984 262.604 168.912C259.721 166.673 259.253 164.712 256.285 165.697C256.019 165.785 255.115 164.416 253.837 164.543C253.677 165.69 254.303 167.546 254.625 168.75C252.452 165.177 250.662 162.986 248.103 159.696C249.195 155.856 251.509 154.39 254.612 152.191C254.593 152.969 254.509 154.867 254.795 155.494C255.596 157.248 255.136 161.949 257.443 162.027C258.533 161.538 259.545 160.201 260.372 159.257C255.848 156.328 256.157 155.164 256.245 150.18C258.804 147.492 262.69 143.887 266.414 143.182C273.098 141.916 274.455 151.19 276.15 152.377C277.541 151.244 278.304 150.729 279.84 149.787C277.61 147.332 276.933 145.097 275.662 142.065Z" fill="#FCE612"/>
<path d="M307.716 146.951L310.585 145.849C311.204 147.424 308.443 148.298 308.44 150.141L309.191 150.792C308.979 152.16 306.93 153.447 306.06 154.623C305.679 155.137 305.322 155.838 304.961 156.293C304.217 157.242 303.618 157.686 303.564 158.739C304.095 159.477 304.154 159.495 304.932 160.001C297.441 159.706 292.163 166.94 285.447 156.677C286.009 155.668 285.82 154.452 285.789 153.237C284.692 152.753 283.444 152.407 282.906 151.44L283.156 150.94C283.778 150.664 287.55 150.264 288.227 150.319C289.023 149.381 289.293 148.706 290.294 148.446C291.397 148.867 292.157 149.163 293.308 149.457C298.501 149.733 302.891 148.558 307.716 146.951Z" fill="black"/>
<path d="M285.789 153.237C286.002 153.364 287.084 153.993 287.199 154.112C288.942 155.07 289.953 155.525 291.807 156.258C291.554 157.18 291.716 157.817 292.291 158.598L292.952 158.541C295.256 158.986 297.03 158.939 299.368 158.788C301.747 158.271 303.421 158.197 304.392 155.727L304.961 156.293C304.217 157.242 303.618 157.686 303.564 158.739C304.095 159.477 304.154 159.495 304.932 160.001C297.441 159.706 292.163 166.94 285.447 156.677C286.009 155.668 285.82 154.452 285.789 153.237Z" fill="#EFDD31"/>
<path d="M292.291 158.598C291.365 158.362 290.456 158.066 289.569 157.712C287.711 156.971 286.083 156.16 287.199 154.112C288.942 155.07 289.953 155.525 291.807 156.258C291.554 157.18 291.716 157.817 292.291 158.598Z" fill="#FCF7AC"/>
<path d="M307.716 146.951L310.585 145.849C311.204 147.424 308.443 148.298 308.44 150.141C307.565 151.054 306.85 151.911 305.783 152.584C304.386 152.605 304.258 152.052 303.615 150.859L301.795 151.975C299.368 151.568 293.447 152.431 292.714 149.772L293.308 149.457C298.501 149.733 302.891 148.558 307.716 146.951Z" fill="#FCF7AC"/>
<path d="M307.716 146.951L310.585 145.849C311.204 147.424 308.443 148.298 308.44 150.141C307.565 151.054 306.85 151.911 305.783 152.584C304.386 152.605 304.258 152.052 303.615 150.859C305.024 150.04 306.972 149.297 308.133 148.293C308.261 147.444 308.321 147.794 307.716 146.951Z" fill="#EFDD31"/>
<path d="M288.227 150.319C289.023 149.381 289.293 148.706 290.294 148.446C291.397 148.867 292.157 149.163 293.308 149.457L292.714 149.772C293.447 152.431 299.368 151.568 301.795 151.975C299.966 152.859 298.745 152.912 296.349 154.189C293.365 153.189 290.981 151.8 288.227 150.319Z" fill="#EFDD31"/>
<path d="M295.314 156.701C296.112 155.806 295.806 155.865 296.735 155.733C297.252 156.178 297.415 156.308 297.851 156.865C298.921 157.347 299.281 157.477 299.368 158.788C297.029 158.939 295.255 158.986 292.952 158.541L292.291 158.598C291.715 157.817 291.554 157.18 291.807 156.258C292.895 156.447 294.238 156.75 295.314 156.701Z" fill="#FCF7AC"/>
<path d="M291.807 156.258C292.895 156.447 294.238 156.75 295.314 156.701L295.945 157.875L295.745 158.359C294.642 158.593 294.062 158.548 292.952 158.541L292.291 158.598C291.715 157.817 291.554 157.18 291.807 156.258Z" fill="#FCFBC9"/>
<path d="M297.851 156.865C299.686 156.053 302.516 154.874 304.392 155.727C303.421 158.197 301.747 158.271 299.368 158.788C299.281 157.477 298.921 157.347 297.851 156.865Z" fill="#FCF7AC"/>
<path d="M285.447 156.677C292.163 166.94 297.441 159.706 304.932 160.001C303.859 163.01 296.693 164.864 293.87 165.69C293.403 165.827 293.352 166.88 291.892 167.185C290.582 166.398 291.415 165.498 290.228 164.599C287.525 162.553 286.236 162.119 283.749 159.614C283.741 162.691 284.158 163.601 285.383 166.409L285.173 167.024L284.398 167.379L283.923 167.956C282.535 167.504 281.53 166.593 280.448 165.655C281.134 164.766 281.515 164.393 281.746 163.268C281.169 161.947 280.353 160.473 279.675 159.176C280.717 157.778 283.84 157.019 285.447 156.677Z" fill="black"/>
<path d="M281.746 163.268C282.624 165.037 283.065 165.903 284.398 167.379L283.923 167.956C282.535 167.504 281.53 166.593 280.448 165.655C281.134 164.766 281.515 164.393 281.746 163.268Z" fill="#EFDD31"/>
<path d="M290.294 148.446C289.211 147.865 286.993 146.891 286.596 145.811C288.266 143.63 293.819 147.148 296.332 146.988C302.665 146.584 309.524 144.278 315.735 142.971C313.7 144.394 312.869 144.868 310.585 145.849L307.716 146.951C302.891 148.558 298.501 149.733 293.308 149.457C292.157 149.163 291.397 148.867 290.294 148.446Z" fill="black"/>
<path d="M269.109 156.112L270.504 156.416C271.575 156.667 272.993 157.152 273.973 156.419C275.819 156.479 276.434 156.658 278.136 157.618C278.609 158.549 278.776 158.623 279.675 159.176C280.353 160.473 281.169 161.947 281.746 163.268C281.515 164.393 281.134 164.766 280.448 165.655C278.625 163.789 277.527 161.066 275.145 160.589C274.003 160.715 273.564 161.193 272.634 161.889L269.68 160.338C268.232 158.921 267.927 159.342 266.121 159.731C267.039 158.282 269.536 159.259 270.519 157.539C270.047 156.551 270.135 156.828 269.109 156.112Z" fill="#FCF7AC"/>
<path d="M262.107 151.586C264.201 153.741 266.114 155.32 269.109 156.112C270.135 156.828 270.047 156.551 270.519 157.539C269.536 159.259 267.039 158.282 266.121 159.731C261.405 161.443 260.681 155.023 262.107 151.586Z" fill="#FDFDE8"/>
<path d="M318.415 142.22C319.723 142.597 320.682 142.353 321.48 142.78C320.488 143.99 318.272 145.181 317.137 146.395C315.425 148.228 314.028 150.404 312.408 152.309C311.77 153.062 311.708 153.237 310.93 153.292L310.76 152.792C311.463 150.611 316.616 143.28 318.415 142.22Z" fill="black"/>
<path d="M299.377 183.996C298.456 184.706 297.788 185.48 296.637 184.913C295.765 182.918 297.606 178.665 298.942 177.067C299.85 176.777 299.418 176.754 300.285 177.122C300.979 177.903 301.006 178.043 301.229 179.07C300.66 180.505 299.776 182.562 299.377 183.996Z" fill="black"/>
<path d="M282.294 191.628C283.252 191.021 283.472 190.997 284.591 190.76C285.423 189.375 284.529 188.518 286.082 188.531C287.123 188.54 288.194 188.633 289.232 188.726C289.203 190.156 289.293 192.102 288.748 193.357C286.051 192.663 284.08 194.54 282.294 191.628Z" fill="#424302"/>
<path d="M262.107 151.586C262.618 150.232 263.12 149.986 263.31 148.385C263.667 150.178 267.684 153.694 269.54 154.039C269.845 153.763 269.889 153.786 270.082 153.446C270.192 154.159 270.334 155.919 270.504 156.416L269.109 156.112C266.114 155.32 264.201 153.741 262.107 151.586Z" fill="#EFDD31"/>
<path d="M277.068 192.584C279.475 192.482 280.348 193.481 281.581 193.077C281.998 192.476 282.123 192.361 282.294 191.628C284.08 194.54 286.051 192.663 288.748 193.357C289.112 194.14 289.116 194.238 289.76 194.775C285.238 197.329 281.43 194.292 277.28 192.666L277.068 192.584Z" fill="#EFDD31"/>
<path d="M263.31 148.385C263.92 148.012 264.338 147.541 265.06 147.767C267.201 148.437 269.055 151.546 270.082 153.446C269.889 153.786 269.845 153.763 269.54 154.039C267.684 153.694 263.667 150.178 263.31 148.385Z" fill="#FCF7AC"/>
<path d="M273.973 156.419C275.77 150.822 279.939 153.892 279.164 156.776C278.834 157.06 278.493 157.379 278.136 157.618C276.434 156.658 275.819 156.479 273.973 156.419Z" fill="black"/>
<path d="M338.913 176.895C341.371 175.333 343.917 173.686 346.72 172.853C344.43 174.528 341.207 176.469 339.238 178.011L338.913 176.895Z" fill="#080E00"/>
<path d="M299.377 183.996C299.776 182.562 300.66 180.505 301.229 179.07C301.191 179.811 301.158 180.497 301.155 181.24C301.667 180.936 301.78 180.896 302.218 180.471C301.473 182.365 300.589 184.329 300.428 186.359C300.383 184.912 300.523 184.78 299.377 183.996Z" fill="#EFDD31"/>
<path d="M318.371 140.824C319.583 141.433 321.26 140.644 322.675 140.212C322.275 140.945 321.427 142.101 321.48 142.78C320.682 142.353 319.723 142.597 318.415 142.22L318.371 140.824Z" fill="#EFDD31"/>
<path d="M335.333 171.39C336.819 170.915 338.696 169.224 339.634 169.14L339.813 169.4C338.976 170.469 337.558 171.493 336.34 172.068L335.333 171.39Z" fill="#182502"/>
<path d="M321.763 155.971L321.921 155.812C325.918 151.772 329.218 150.64 335.16 150.321C336.111 150.27 336.349 150.664 336.906 151.255L336.31 152.034L336.477 152.443C336.483 153.198 336.477 153.844 336.438 154.597C337.725 154.702 337.782 154.507 338.75 155.199C339.202 156.609 338.767 157.454 338.276 158.925C338.032 159.47 337.805 159.864 337.728 160.46C337.686 161.222 337.68 161.202 337.403 161.919L336.867 162.13C335.643 161.851 333.201 160.262 331.565 159.534L331.032 161.105C329.68 167.841 320.345 164.378 315.815 166.15C313.906 166.897 312.985 170.007 310.564 169.628C309.521 168.292 310.206 167.394 311.347 166.53C311.148 166.066 311.136 165.718 311.073 165.222C312.792 161.679 318.082 160.264 321.727 160.355C322.418 158.031 320.581 159.13 321.763 155.971Z" fill="#FCF7AC"/>
<path d="M321.727 160.355C324.319 159.838 327.532 156.274 330.043 157.056C330.767 158.654 331.259 158.907 330.154 160.465L331.032 161.105C329.68 167.841 320.345 164.378 315.815 166.15C313.906 166.897 312.985 170.007 310.564 169.628C309.521 168.292 310.206 167.394 311.347 166.53C311.148 166.066 311.136 165.718 311.073 165.222C312.792 161.679 318.082 160.264 321.727 160.355Z" fill="#FCFBC9"/>
<path d="M330.154 160.465L331.032 161.105C329.68 167.841 320.345 164.378 315.815 166.15C313.906 166.897 312.985 170.007 310.564 169.628C309.521 168.292 310.206 167.394 311.347 166.53C313.498 165.763 315.187 164.32 317.012 162.956C322.785 163.147 325.358 163.733 330.154 160.465Z" fill="black"/>
<path d="M336.438 154.597C337.725 154.702 337.782 154.507 338.75 155.199C339.202 156.609 338.767 157.454 338.276 158.925C338.032 159.47 337.805 159.864 337.728 160.46C337.686 161.222 337.68 161.201 337.403 161.919L336.867 162.13C335.643 161.851 333.201 160.262 331.565 159.534C332.152 158.333 333.257 157.789 334.401 157C334.883 156.653 335.348 156.354 335.846 156.033L336.438 154.597Z" fill="black"/>
<path d="M336.438 154.597C337.725 154.702 337.782 154.507 338.75 155.199C339.202 156.609 338.767 157.454 338.276 158.925C336.709 158.094 336.495 157.584 335.846 156.033L336.438 154.597Z" fill="black"/>
<path d="M335.845 156.033C336.495 157.584 336.709 158.094 338.276 158.925C338.032 159.47 337.805 159.864 337.728 160.46C336.757 159.67 335.294 157.976 334.401 157C334.883 156.653 335.348 156.354 335.845 156.033Z" fill="#EFDD31"/>
<path d="M336.31 152.034L336.477 152.443C336.483 153.198 336.477 153.844 336.438 154.597L335.846 156.033C335.348 156.354 334.883 156.653 334.401 157C333.257 157.789 332.152 158.333 331.565 159.534L331.032 161.105L330.154 160.465C331.259 158.907 330.767 158.654 330.043 157.056C330.574 156.192 330.856 155.589 331.658 154.965C333.641 154.318 334.717 153.308 336.31 152.034Z" fill="#FCE612"/>
<path d="M321.763 155.971C322.067 157.082 321.843 156.964 322.57 157.522C325.751 155.917 328.119 155.002 331.658 154.965C330.856 155.589 330.574 156.192 330.043 157.056C327.532 156.274 324.319 159.838 321.727 160.355C322.418 158.031 320.581 159.13 321.763 155.971Z" fill="#F9EB78"/>
<path d="M302.48 137.318C304.875 137.608 312.866 138.084 314.674 139.292L314.373 139.655L313.414 139.691C309.393 139.818 305.509 139.622 301.473 139.84L301.128 139.449C301.241 138.477 301.795 138.066 302.48 137.318Z" fill="black"/>
<path d="M303.308 166.601C304.997 166.601 306.197 166.531 307.38 167.852C308.041 170.065 306.492 170.484 304.717 171.17C303.144 171.119 302.281 171.157 301.05 170.069L301.074 169.52C302.206 168.509 302.972 168.819 304.02 168.095C303.782 167.661 303.627 167.388 303.439 166.928L303.308 166.601Z" fill="black"/>
<path d="M296.567 137.731C298.09 137.752 297.554 137.56 298.7 138.331L298.772 138.889C298.319 139.326 298.495 139.174 297.852 139.4C294.505 138.417 295.443 139.126 292.32 140.812C291.145 140.813 290.703 140.851 289.539 140.517L289.316 140.101C290.641 138.818 294.667 138.139 296.567 137.731Z" fill="black"/>
<path d="M333.352 163.88L333.632 163.988C333.954 165.24 331.795 168.449 330.722 168.844C329.623 167.974 329.281 167.858 329.54 166.515C330.204 165.499 332.209 164.529 333.352 163.88Z" fill="black"/>
<path d="M336.906 151.255C338.109 149.919 339.101 148.82 340.426 147.585C339.911 149.814 340.123 152.369 338.767 153.244C337.895 153.181 337.21 152.952 336.477 152.443L336.31 152.034L336.906 151.255Z" fill="black"/>
<path d="M309.292 154.887C311.749 155.499 312.417 157.395 311.365 159.583L310.638 159.655C309.995 159.331 309.209 155.485 309.292 154.887Z" fill="black"/>
<path d="M289.36 168.316C289.827 168.489 290.061 168.65 290.489 168.895L290.619 169.498C290.087 170.381 288.803 170.989 287.861 171.558C287.734 171.57 287.107 171.465 286.937 171.441L286.667 170.973C286.961 169.376 288.019 168.896 289.36 168.316Z" fill="black"/>
<path d="M287.661 182.612C289.518 182.587 292.011 182.342 292.094 184.513C289.913 185.024 288.312 184.891 287.661 182.612Z" fill="black"/>
<path d="M298.477 173.723C300.505 173.653 301.5 173.869 302.382 175.792C301.283 175.936 299.925 175.911 298.93 175.381C298.269 174.543 298.429 174.947 298.477 173.723Z" fill="black"/>
<path d="M286.165 185.666C288.103 185.696 289.79 185.266 290.266 187.353C289.133 187.413 288.016 187.553 286.938 187.21C286.096 186.477 286.318 186.877 286.165 185.666Z" fill="black"/>
<path d="M346.86 209.474C345.91 208.284 344.829 207.248 344.611 205.808C345.603 204.416 345.609 205.753 345.937 204.277C345.091 203.27 344.099 202.732 343.78 201.714C344.272 201.629 344.573 201.466 344.867 201.749C345.701 202.547 349.252 202.5 349.41 202.715C351.834 206.031 355.426 213.6 356.725 217.1C356.919 217.629 357.085 218.167 357.219 218.714C356.195 217.792 354.592 215.98 353.562 215.529C351.268 216.702 352.204 222.544 350.664 224.394C350.491 224.601 349.493 224.726 349.216 224.764C346.884 227.282 349.168 230.62 343.56 235.749C342.985 234.747 342.55 233.735 341.621 233.108C340.68 233.007 340.611 232.95 339.649 233.658C340.477 237.588 343.158 242.469 344.537 246.89L344.689 247.166C345.561 248.795 345.972 250.843 346.842 251.899C348.251 251.403 349.028 247.128 349.636 245.583C351.188 241.635 353.767 236.248 356.457 233.017C356.177 225.378 357.94 221.185 359.367 213.936C363.221 211.719 364.031 208.545 368.433 209.432C369.854 209.719 369.973 211.004 371.296 210.84C371.689 209.361 371.156 208.891 371.895 208.459C373.387 209.397 375.272 212.823 375.734 214.525C375.543 215.349 375.353 215.407 374.656 215.981C374.539 217.043 374.599 217.236 375.373 218.199C375.689 218.584 376.008 218.964 376.335 219.339L376.86 222.99C375.901 224.912 375.567 225.429 374.212 227.098C373.554 226.891 368.821 225.05 368.987 225.05C368.576 225.844 368.705 225.589 368.871 226.662C370.947 229.289 375.996 228.329 378.194 230.334C379.174 231.226 379.743 233.79 380.109 235.159C375.025 231.325 375.692 234.565 370.34 233.384C369.074 233.106 366.864 231.037 365.193 230.719L364.812 231.102C365.175 233.925 372.419 235.885 374.846 236.706C372.809 240.387 371.844 241.077 369.256 244.198C368.025 245.683 366.682 250.287 366.039 252.277L361.684 252.117C362.152 256.538 362.399 257.091 365.08 260.713C362.563 259.384 360.993 258.328 358.137 258.116L357.586 258.37C357.598 260.453 359.733 260.506 358.387 262.611C356.969 262.676 353.767 260.099 351.977 260.714C351.727 262.006 353.368 263.771 354.149 264.825C352.501 264.23 348.984 262.729 347.456 262.847C345.97 263.912 347.238 265.712 347.885 267.135C345.943 265.798 342.071 261.956 340.641 262.05C339.167 264.074 342.333 267.132 343.596 268.612L342.175 272.433C341.591 271.212 341.028 269.672 339.947 268.944L339.298 268.908C337.91 270.555 339.771 273.674 340.501 275.228C339.685 274.564 337.996 273.063 337.177 273.591C335.158 274.894 332.507 274.578 331.726 271.384C332.533 269.518 334.532 270.457 335.893 269.172C335.417 267.173 328.274 261.495 326.228 260.584C326.148 262.88 325.909 265.57 326.544 267.827C327.089 269.762 332.042 274.395 331.667 276.285C331.181 278.73 332.617 280.398 333.546 282.929C329.186 279.795 326.961 281.147 322.135 277.16C324.557 280.349 325.763 281.808 327.479 285.459C325.105 284.417 324.119 284.465 321.781 284.313C321.072 284.267 321.036 282.168 318.91 282.931L318.791 283.32C318.636 283.818 318.549 283.997 318.32 284.458C316.75 284.532 316.682 282.457 315.276 283.871C314.165 284.988 314.573 288.29 313.614 289.493C312.616 289.317 311.35 287.606 310.597 286.749C308.446 289.336 308.39 289.609 308.705 293.045L308.747 293.494C308.002 292.472 307.055 290.961 305.998 290.382L305.417 290.458C305.11 291.007 304.848 291.452 304.515 291.983C302.838 292.065 301.384 289.724 300.315 288.455C299.415 287.795 299.234 287.663 298.549 286.79C300.151 285.919 304.13 286.297 305.372 284.064C305.596 283.664 305.804 283.707 306.325 283.535C306.841 283.902 307.177 284.176 307.657 284.588L308.369 284.421C308.634 283.222 307.481 282.972 307.636 281.747C308.422 281.918 309.095 282.101 309.873 282.319L310.087 281.99C309.828 281.124 309.611 280.496 309.28 279.655C309.447 279.058 311.967 275.357 312.348 275.125C313.602 275.6 315.875 276.529 316.923 275.478L316.86 274.668C316.393 273.979 315.127 273.559 314.305 273.194C315.499 271.417 316.557 270.427 316.399 268.418L316.384 268.228C317.093 268.268 317.277 268.22 317.954 268.102C318.383 267.367 318.338 267.741 318.135 266.951L317.057 266.435L316.926 265.74C317.513 265.283 318.013 265.765 318.707 266.061C320.36 266.763 324.066 266.393 325.963 266.325C322.341 265.056 323.583 265.568 321.156 262.721C320.408 261.844 318.469 262.091 317.164 262.099C317.036 260.191 317.674 259.003 315.767 258.208C315.41 257.432 315.228 257.355 314.549 256.788L313.623 256.494C313.402 250.895 313.432 248.363 316.869 244.04C315.434 242.966 314.79 242.498 313.59 241.195L314.737 240.568L315.219 239.962C313.635 238.83 313.221 238.856 313.125 236.893C313.313 236.573 313.388 236.217 313.498 235.853L313.102 235.727L311.934 236.642C313.435 233.492 315.133 230.698 316.863 227.679C317.28 223.216 315.172 213.991 311.026 211.676C311.633 211.385 314.555 208.485 315.16 207.795C315.806 207.06 315.651 206.811 315.541 206.065C316.804 206.057 318.374 205.916 319.479 206.439L319.83 207.018C319.315 209.115 315.699 211.055 316.512 213.081C318.117 213.123 319.559 210.556 321.686 210.427C324.897 206.361 324.899 205.954 330.264 207.501C330.651 208.609 331.545 210.781 331.443 211.818C330.282 212.179 330.565 211.907 329.972 212.75C330.163 213.734 329.814 217.471 330.198 217.829C331.119 218.681 332.39 219.813 333.338 220.815C334.07 217.822 333.028 216.703 331.616 213.933C332.688 214.754 333.71 215.834 334.928 215.85C337.156 213.495 333.242 211.049 333.385 209.855C336.537 208.651 333.918 208.902 336.194 207.685C337.668 207.825 338.002 207.794 339.467 207.602L339.429 206.776C337.731 206.865 336.111 206.58 334.425 206.35L332.414 203.649L332.057 203.504C331.646 203.173 331.756 203.235 331.464 202.759L331.744 201.831C333.061 201.871 338.744 202.226 339.607 202.067C342.097 204.727 339.399 205.135 343.14 207.095C344.397 207.966 345.502 208.767 346.86 209.474Z" fill="#FCE612"/>
<path d="M337.779 235.966L338.77 235.827C339.551 234.996 339.381 234.869 339.649 233.658C340.477 237.588 343.158 242.469 344.537 246.89C343.67 247.521 343.673 247.698 343.244 248.738C340.704 252.142 338.514 252.233 334.529 251.927C334.592 254.011 334.991 257.618 332.033 257.659C331.214 256.835 331.339 256.067 331.104 254.714C329.192 255.384 328.146 259.379 325.903 258.311C324.98 257.274 324.545 255.534 324.098 254.174C325.489 250.952 326.517 248.549 327.571 245.221C326.654 243.864 325.325 242.144 325.194 240.497C326.407 239.745 327.208 241.36 328.929 240.364C329.168 239.494 329.203 239.211 329.296 238.309L329.68 238.245C330.666 238.99 331.211 240.854 331.97 242.223L332.399 242.322C334.049 239.485 333.635 240.839 335.804 239.27C336.379 238.255 336.438 237.115 336.59 235.957L336.989 235.66L337.779 235.966Z" fill="black"/>
<path d="M337.779 235.966L338.77 235.827C339.551 234.996 339.381 234.869 339.649 233.658C340.477 237.588 343.158 242.469 344.537 246.89C343.67 247.521 343.673 247.698 343.244 248.738C341.773 243.766 340.471 240.434 337.779 235.966Z" fill="#EFDD31"/>
<path d="M314.737 240.568C318.898 242.621 320.861 243.893 324.414 246.996C322.895 250.632 321.295 252.566 321.534 256.591C319.622 256.481 316.211 256.081 314.549 256.788L313.623 256.494C313.402 250.895 313.432 248.363 316.869 244.04C315.434 242.966 314.79 242.498 313.59 241.195L314.737 240.568Z" fill="black"/>
<path d="M339.467 207.602C340.248 208.079 340.724 208.152 340.885 209.127C341.132 210.623 340.531 212.943 339.682 214.164L339.837 214.667L339.983 215.677L339.36 216.454C338.219 217.874 338.803 220.928 337.508 223.919C336.462 225.978 335.962 227.107 334.371 228.839C331.795 228.226 331.452 227.352 331.163 224.934C331.83 224.839 331.783 224.814 332.289 224.354C332.405 223.747 333.114 221.6 333.338 220.815C334.07 217.822 333.028 216.703 331.616 213.933C332.688 214.754 333.71 215.834 334.928 215.85C337.156 213.495 333.242 211.049 333.385 209.855C336.537 208.651 333.918 208.902 336.194 207.685C337.668 207.825 338.002 207.794 339.467 207.602Z" fill="#FCF7AC"/>
<path d="M331.744 201.831C333.061 201.871 338.744 202.226 339.607 202.067C342.097 204.727 339.399 205.135 343.14 207.095C342.741 207.75 342.455 208.394 341.785 208.729L341.115 209.028L340.808 209.982C342.61 210.73 346.759 212.388 347.566 214.205C346.547 214.82 346.905 214.513 346.229 215.675C346.964 216.805 347.021 216.536 347.051 217.725C345.922 218.186 345.916 218.28 345.77 219.563L345.684 221.075C344.072 220.432 341.016 217.118 339.983 215.677L339.837 214.667L339.682 214.164C340.531 212.943 341.132 210.622 340.885 209.127C340.724 208.152 340.248 208.079 339.467 207.602L339.429 206.776C337.731 206.865 336.111 206.58 334.425 206.35L332.414 203.649L332.057 203.504C331.646 203.173 331.756 203.235 331.464 202.759L331.744 201.831Z" fill="#EFDD31"/>
<path d="M332.414 203.649C333.356 201.95 334.901 201.261 336.697 202.279C338.553 203.331 338.83 204.851 339.429 206.776C337.731 206.865 336.111 206.58 334.425 206.35L332.414 203.649Z" fill="#FCFBC9"/>
<path d="M340.808 209.982C342.61 210.73 346.759 212.388 347.566 214.205C346.547 214.82 346.905 214.513 346.229 215.675C344.579 214.103 343.054 212.52 340.927 211.674C341.016 211.067 340.9 210.589 340.808 209.982Z" fill="#EFDD31"/>
<path d="M339.837 214.667C342.059 214.619 344.328 217.882 345.77 219.563L345.683 221.075C344.072 220.432 341.016 217.118 339.983 215.677L339.837 214.667Z" fill="black"/>
<path d="M340.927 211.674C343.054 212.52 344.579 214.103 346.229 215.675C346.964 216.805 347.021 216.536 347.051 217.725C346.86 217.694 346.401 217.635 346.261 217.491C344.418 215.582 341.418 214.364 340.927 211.674Z" fill="black"/>
<path d="M316.863 227.679L317.397 228.52L317.516 229.58L316.863 230.658C318.171 231.976 318.695 233.323 319.991 234.516L321.733 237.328C322.898 237.178 323.842 236.924 324.911 237.334C324.742 237.907 321.2 239.555 320.181 240.315L319.297 241.31C318.263 241.073 316.295 240.334 315.219 239.962C313.635 238.83 313.221 238.856 313.125 236.893C313.313 236.573 313.387 236.217 313.498 235.853L313.102 235.727L311.934 236.642C313.435 233.492 315.133 230.698 316.863 227.679Z" fill="black"/>
<path d="M316.863 227.679L317.397 228.52L317.516 229.58L316.863 230.658C315.708 232.484 315.416 232.928 313.861 234.397C314.826 235.541 315.866 236.729 316.729 237.941C315.827 237.64 313.971 236.953 313.125 236.893C313.313 236.573 313.387 236.217 313.498 235.853L313.102 235.727L311.934 236.642C313.435 233.492 315.133 230.698 316.863 227.679Z" fill="#FCFBC9"/>
<path d="M321.429 222.168C322.463 222.968 323.363 223.558 324.089 224.649L323.92 224.89C322.928 224.594 321.93 224.094 321.093 224.343C322.07 226.269 323.446 224.722 322.859 227.357C322.457 229.159 322.103 231.074 321.766 232.894C321.513 233.179 321.435 233.328 321.129 233.528C320.19 233.975 320.426 233.701 319.991 234.516C318.695 233.323 318.171 231.976 316.863 230.658L317.516 229.58L317.397 228.52C317.921 227.593 320.887 222.807 321.429 222.168Z" fill="black"/>
<path d="M317.516 229.58C318.18 230.397 320.31 233.058 321.129 233.528C320.19 233.975 320.426 233.701 319.991 234.516C318.695 233.323 318.171 231.976 316.863 230.658L317.516 229.58Z" fill="#EFDD31"/>
<path d="M328.355 230.306C327.747 230.72 327.258 230.978 326.558 230.805C326.314 229.83 326.978 228.536 327.312 227.346C326.964 226.904 326.624 226.455 326.293 225.999L326.511 225.402C327.22 225.442 327.431 225.49 328.125 225.654C328.587 224.472 328.078 222.924 328.262 221.72C328.378 220.963 328.995 219.368 329.281 218.607C330.579 220.452 331.685 222.159 332.289 224.354C331.783 224.814 331.83 224.839 331.163 224.934C330.886 227.149 329.671 228.454 328.355 230.306Z" fill="black"/>
<path d="M339.983 215.677C341.016 217.118 344.072 220.432 345.684 221.076C344.82 221.646 345.073 221.32 344.671 222.257C343.616 221.542 341.77 219.536 340.802 218.545C340.858 220.977 340.808 223.045 339.649 225.244C338.863 224.703 338.348 224.371 337.508 223.919C338.803 220.928 338.219 217.874 339.36 216.454L339.983 215.677Z" fill="#EFDD31"/>
<path d="M340.802 218.545C341.77 219.536 343.616 221.542 344.671 222.257C344.975 223.357 345.088 223.092 344.713 223.892C343.765 223.899 343.456 223.723 342.541 223.406L342.291 223.674C342.94 225.68 344.355 225.821 343.602 227.504C342.088 228.327 340.736 226.353 339.649 225.244C340.808 223.045 340.858 220.977 340.802 218.545Z" fill="black"/>
<path d="M328.355 230.306C329.671 228.454 330.886 227.149 331.163 224.934C331.452 227.352 331.795 228.226 334.371 228.839C332.67 230.365 330.442 232.544 328.355 230.306Z" fill="#F9EB78"/>
<path d="M341.785 208.729C343.92 209.347 348.668 211.892 349.031 214.137L348.606 214.454L347.566 214.205C346.759 212.388 342.61 210.73 340.808 209.982L341.115 209.028L341.785 208.729Z" fill="black"/>
<path d="M319.297 241.31L320.181 240.315C320.998 240.823 321.31 240.762 322.266 240.75C323.16 241.358 322.955 241.034 323.252 241.947C322.287 242.823 320.527 241.596 319.297 241.31Z" fill="#182502"/>
<path d="M357.833 239.949C359.331 240.057 363.841 244.879 364.201 246.092C361.127 246.725 358.309 242.593 357.833 239.949Z" fill="black"/>
<path d="M354.685 247.523C355.337 247.898 359.668 253.662 360.04 254.57C356.686 254.096 355.435 250.35 354.685 247.523Z" fill="black"/>
<path d="M363.304 240.328C364.347 240.453 367.626 241.105 368.356 241.814L368.32 242.666C365.571 243.885 364.532 242.674 363.304 240.328Z" fill="black"/>
<path d="M311.934 236.642L313.102 235.727L313.498 235.853C313.388 236.217 313.313 236.573 313.125 236.893C313.221 238.856 313.635 238.83 315.219 239.962L314.737 240.568L313.59 241.195C314.79 242.497 315.434 242.966 316.869 244.04C313.432 248.363 313.402 250.895 313.623 256.494L314.549 256.788C315.228 257.355 315.41 257.432 315.767 258.208C315.118 261.115 313.894 262.03 311.904 264.294C310.558 265.699 309.51 266.415 309.185 268.264L309.224 268.827C307.743 269.091 307.046 269.445 306.221 270.709C306.081 270.923 305.947 271.14 305.819 271.36C305.188 272.852 304.482 275.512 302.888 276.177C302.415 276.375 301.95 276.29 301.497 276.069C301.024 275.839 300.407 275.293 299.916 275.455C299.481 275.599 299.642 275.52 299.287 275.818C298.936 276.568 296.586 280.165 295.907 280.384C293.054 278.765 292.082 280.938 288.912 280.091C288.168 279.254 287.992 278.819 286.859 278.921C286.256 279.452 285.328 280.34 284.438 279.886C281.889 278.586 280.09 277.755 277.305 277.06C275.765 277.927 274.762 278.784 273.399 279.883C273.699 277.269 274.296 276.926 272.172 275.301C271.048 276.104 269.735 276.68 268.488 277.285C268.827 275.802 269.728 273.523 268.674 272.426C267.633 273.008 267.326 273.432 266.328 273.322C264.148 271.484 262.073 268.204 260.453 265.806L261.049 262.616C261.605 260.368 262.424 257.543 262.541 255.278C262.849 253.885 263.404 253.577 264.516 252.869C265.446 259.491 269.132 259.33 271.542 263.156C273.155 263.027 274.929 262.846 276.531 262.775C277.516 262.522 278.023 262.574 278.626 261.92C277.83 261.326 277.624 261.496 276.514 261.418C276.379 260.24 276.256 260.625 276.771 259.72C280.317 257.468 295.2 261.757 300.589 262.033C311.973 256.974 306.034 246.923 311.934 236.642Z" fill="#FDFDE8"/>
<path d="M279.506 272.905C281.854 272.954 287.141 273.192 289.365 273.772C290.811 274.179 292.025 274.471 293.494 274.783C294.523 274.974 298.56 275.899 299.287 275.818C298.936 276.568 296.586 280.165 295.907 280.384C293.054 278.766 292.082 280.938 288.912 280.091C288.168 279.254 287.991 278.819 286.859 278.921C286.256 279.452 285.328 280.34 284.438 279.886C281.889 278.586 280.089 277.755 277.305 277.06C275.765 277.927 274.762 278.784 273.399 279.883C273.699 277.269 274.296 276.926 272.172 275.301L272.818 275.154L272.801 274.991C274.208 273.259 277.459 272.986 279.506 272.905Z" fill="#FCE612"/>
<path d="M309.462 262.802C309.837 261.891 310.641 259.982 310.805 259.058C311.505 255.096 311.163 244.176 313.59 241.195C314.79 242.498 315.434 242.967 316.869 244.04C313.432 248.363 313.402 250.895 313.623 256.494L314.549 256.788C315.228 257.355 315.41 257.432 315.767 258.208C315.118 261.115 313.894 262.03 311.904 264.294C310.558 265.7 309.51 266.415 309.185 268.264C308.961 266.319 309.232 264.729 309.462 262.802Z" fill="#F9EB78"/>
<path d="M311.904 264.294C310.945 262.032 311.442 260.253 311.952 257.891C312.148 256.979 312.866 256.854 313.623 256.494L314.549 256.788C315.228 257.355 315.41 257.432 315.767 258.208C315.118 261.115 313.894 262.03 311.904 264.294Z" fill="#EFDD31"/>
<path d="M276.514 261.418C276.379 260.24 276.256 260.625 276.771 259.72C280.317 257.468 295.2 261.757 300.589 262.033C299.412 262.304 299.165 262.149 298.459 262.931L298.31 263.932C295.234 265.634 286.777 263.165 283.073 262.887C280.517 262.694 279.183 262.679 276.531 262.775C277.516 262.522 278.023 262.574 278.626 261.92C277.83 261.326 277.624 261.496 276.514 261.418Z" fill="#A79A35"/>
<path d="M276.514 261.418C277.186 261.203 278.725 260.778 279.337 260.825C281.684 261.007 297.396 263.148 298.31 263.932C295.234 265.634 286.777 263.165 283.073 262.887C280.517 262.694 279.183 262.679 276.531 262.775C277.516 262.522 278.023 262.574 278.626 261.92C277.83 261.326 277.624 261.496 276.514 261.418Z" fill="#424302"/>
<path d="M289.365 273.772C291.288 273.82 294.947 273.201 296.983 272.959C303.198 272.221 306.001 267.471 309.462 262.802C309.232 264.729 308.961 266.319 309.185 268.264L309.224 268.827C307.743 269.091 307.046 269.445 306.221 270.709C306.081 270.923 305.947 271.14 305.819 271.36C305.188 272.852 304.482 275.512 302.888 276.177C302.415 276.375 301.95 276.29 301.497 276.069C301.024 275.839 300.407 275.293 299.916 275.455C299.481 275.599 299.642 275.52 299.287 275.818C298.56 275.899 294.523 274.974 293.494 274.783C292.025 274.471 290.811 274.179 289.365 273.772Z" fill="#FCF7AC"/>
<path d="M293.494 274.783C296.594 274.918 302.65 272.387 305.819 271.36C305.188 272.852 304.482 275.512 302.888 276.177C302.415 276.375 301.95 276.29 301.497 276.069C301.024 275.839 300.407 275.293 299.916 275.455C299.481 275.599 299.642 275.52 299.287 275.818C298.56 275.899 294.523 274.974 293.494 274.783Z" fill="#EFDD31"/>
<path d="M261.049 262.616C261.239 263.558 263.301 265.806 264.083 267.579C265.002 268.301 270.779 271.491 270.79 271.508C269.789 271.786 269.598 271.916 268.674 272.426C267.633 273.008 267.326 273.432 266.328 273.322C264.148 271.484 262.073 268.204 260.453 265.806L261.049 262.616Z" fill="#FCF7AC"/>
<path d="M268.674 272.426C269.598 271.916 269.789 271.786 270.79 271.508C274.234 273.141 276.283 272.268 279.506 272.905C277.459 272.986 274.207 273.259 272.801 274.991L272.818 275.154L272.172 275.301C271.048 276.104 269.735 276.68 268.488 277.285C268.827 275.802 269.728 273.523 268.674 272.426Z" fill="#EFDD31"/>
<path d="M283.825 222.19C286.389 223.489 293.052 223.981 296.04 224.239C296.461 229.105 296.601 230.469 298.292 235.034C299.889 231.529 300.768 227.871 302.418 224.41C303.195 222.78 305.462 223.034 306.713 223.831C306.835 224.711 306.147 226.354 305.792 227.197C302.975 233.881 303.85 242.408 300.502 248.844C300.187 249.245 299.731 249.568 299.326 249.892L298.781 249.812C298.14 248.666 298.164 246.395 297.899 244.917C297.201 241.003 296.083 238.794 293.921 235.599C293.379 239.252 293.375 242.469 292.646 246.503C288.013 246.889 283.01 246.937 278.669 247.347C277.785 241.582 279.043 241.573 279.977 236.257C280.943 230.754 282.055 227.431 283.825 222.19Z" fill="#DE0000"/>
<path d="M358.381 178.24C358.825 175.345 360.344 173.214 360.412 172.224C359.876 171.75 359.343 171.269 358.819 170.781C358.7 169.908 358.604 170.294 359.093 169.583L360.26 169.49L360.528 169.899C360.68 170.329 360.764 170.862 361.062 171.012C363.772 172.379 365.565 173.872 367.62 176.086C367.245 177.402 366.861 178.864 366.42 180.144C366.983 181.167 367.683 182.183 367.677 183.334C366.76 184.373 365.378 183.581 364.171 183.171C365.607 186.928 364.517 188.382 365.92 192.36L362.703 193.988C363.105 194.941 363.733 196.322 364.046 197.262C362.03 200.181 358.977 201.99 357.184 204.718L354.217 205.823C352.257 204.348 351.161 203.127 349.401 201.599L345.144 201.249C344.245 200.431 340.98 197.537 339.816 197.434C339.259 199.194 342.217 200.003 342.365 201.286C341.484 201.45 341.254 201.466 340.361 201.439C340.161 201.599 339.765 201.895 339.607 202.067C338.744 202.226 333.061 201.871 331.744 201.831C331.312 201.718 329.871 201.699 329.34 201.678C329.606 201.121 329.525 200.915 329.451 200.307L329.117 200.126C329.111 199.672 329.2 199.192 329.263 198.735C329.4 197.057 328.807 196.464 327.789 195.223C329.266 194.418 334.029 194.297 337.499 192.478C338.05 192.943 338.511 194.462 338.797 195.218C339.944 195.904 342.872 197.5 344.165 197.279L344.254 196.651C343.274 195.291 342.127 195.374 340.832 194.077L341.183 193.621C341.877 193.642 342.339 193.649 343.03 193.604L343.292 192.427C344.007 191.619 346.92 191.1 348.221 190.768C349.326 191.174 350.345 191.642 351.393 192.161C353.112 193.011 352.829 193.525 353.52 195.021C354.598 194.992 354.47 194.422 355.736 193.589C357.02 194.478 355.542 195.801 357.577 196.878C359.662 196.521 357.446 193.957 359.337 192.298C360.472 191.301 359.552 186.386 359.346 184.565C360.013 183.484 359.697 184.433 361.315 183.95C361.318 183.089 359.024 179.413 358.381 178.24Z" fill="#FCE612"/>
<path d="M329.451 200.307C331.774 200.678 339.089 200.383 340.361 201.439C340.161 201.599 339.765 201.895 339.607 202.067C338.744 202.226 333.061 201.871 331.744 201.831C331.312 201.718 329.871 201.699 329.34 201.678C329.606 201.121 329.525 200.915 329.451 200.307Z" fill="#424302"/>
<path d="M302.43 191.227C306.891 185.731 307.183 185.055 313.602 188.527C312.586 189.969 311.723 191.155 310.612 192.521C309.17 194.405 302.051 200.532 299.77 202.406L300.267 202.985C302.79 202.476 308.032 196.916 309.843 197.252C310.061 198.791 310.43 199.563 309.509 200.66C308.083 202.357 304.926 203.038 303.818 204.822C304.997 205.604 305.643 206.136 306.725 207.051L306.638 207.672C304.431 208.946 301.646 208.274 300.83 209.308L300.809 209.731C304.22 210.261 308.193 208.668 311.067 206.964L312.443 204.382C313.688 205.222 314.171 205.451 315.541 206.065C315.651 206.811 315.806 207.06 315.16 207.795C314.555 208.485 311.633 211.385 311.026 211.676C305.974 212.504 287.906 214.895 285.943 207.521C284.484 202.039 295.114 200.158 297.634 196.223C297.833 195.022 297.858 195.513 297.223 194.197L297.396 193.884L298.102 193.882C298.465 193.914 298.951 193.895 299.329 193.893C300.601 193.321 301.459 192.247 302.43 191.227Z" fill="#FCFBF3"/>
<path d="M302.43 191.227C306.891 185.731 307.183 185.055 313.602 188.527C312.586 189.969 311.723 191.155 310.612 192.521C309.468 191.761 304.479 191.555 302.43 191.227Z" fill="#FCE612"/>
<path d="M303.818 204.822C304.997 205.604 305.643 206.136 306.725 207.051L306.638 207.672C304.431 208.946 301.646 208.274 300.83 209.308L300.809 209.731L300.72 210.212C300.422 210.036 299.403 207.932 299.082 207.373L299.195 206.832C300.181 205.944 302.504 205.16 303.818 204.822Z" fill="#FBF9F9"/>
<path d="M303.818 204.822C303.177 207.671 301.834 206.677 299.082 207.373L299.195 206.832C300.181 205.944 302.504 205.16 303.818 204.822Z" fill="black"/>
<path d="M299.77 202.406L300.267 202.985C299.388 203.492 298.715 204.054 297.757 203.683C298.352 202.794 298.662 202.881 299.77 202.406Z" fill="#150506"/>
<path d="M308.821 236.612C308.39 238.335 307.404 242.225 307.273 243.691C305.688 261.526 300.791 261.017 285.361 257.192C280.045 255.875 271.021 260.852 267.359 253.979C265.138 249.733 268.555 244.179 269.865 240.151C270.22 239.072 270.99 236.762 272.01 236.297C274.831 239.808 267.814 248.395 270.139 251.728C270.984 252.01 271.455 252.074 272.424 251.701C273.9 251.132 274.291 253.49 275.853 255.378C277.549 254.244 278.81 253.282 280.913 253.287L281.355 252.984C280.38 251.673 279.132 249.621 280.449 248.216C281.414 248.21 281.035 248.095 281.855 248.756C282.079 249.636 282.057 249.768 282.671 250.384C283.651 249.899 282.945 249.132 284.155 248.244L284.825 248.392L285.639 249.686L286.217 249.709C287.09 248.67 287.14 248.445 288.349 248.866C289.17 249.151 290.309 247.749 291.544 248.63C291.816 249.779 291.461 251.135 291.261 252.346C292.645 254.097 293.616 255.32 295.519 256.538C296.448 255.659 305.745 247.3 304.884 246.039C302.659 242.783 306.153 239.174 308.821 236.612Z" fill="#F07D80"/>
<path d="M281.355 252.984C280.38 251.673 279.132 249.621 280.449 248.216C281.414 248.21 281.035 248.095 281.855 248.756C282.079 249.636 282.057 249.768 282.671 250.384C283.651 249.899 282.945 249.132 284.155 248.244L284.825 248.392L285.639 249.686L286.218 249.709C287.091 248.67 287.14 248.445 288.349 248.866C289.17 249.151 290.309 247.749 291.544 248.63C291.816 249.779 291.461 251.135 291.261 252.346L290.671 253.229C289.505 252.915 288.354 252.466 287.213 252.806C286.819 253.114 286.535 253.318 286.179 253.675C286.098 254.072 286.183 253.882 285.794 254.184C283.3 250.668 284.602 253.638 281.355 252.984Z" fill="#FBF9F9"/>
<path d="M286.179 253.675C286.535 253.318 286.819 253.114 287.213 252.806C288.354 252.466 289.505 252.915 290.671 253.229C290.149 254.801 288.121 254.575 286.74 254.365L286.179 253.675Z" fill="black"/>
<path d="M269.019 191.725C268.067 190.859 267.63 190.293 267.856 188.974C269.359 187.334 270.292 188.278 271.659 189.455C272.663 188.803 273.377 188.2 274.581 188.221C277.07 189.205 274.628 192.107 274.31 193.691C276.726 200.02 281.525 198.488 283.713 204.651C283.243 206.851 282.996 208.989 280.901 210.27C278.291 211.866 271.817 211.014 269.361 212.48C268.511 211.681 266.465 208.442 265.371 207.128C267.46 203.876 271.2 207.749 273.677 206.675C274.167 206.312 274.38 206.329 274.991 206.163C275.068 205.683 275.04 205.561 275.033 205.066C274.384 204.348 273.269 203.277 273.675 202.297C274.58 202.314 276.801 203.608 278.041 204.127C275.4 200.851 272.592 200.36 270.758 196.957C269.86 195.29 269.488 195.059 268.099 193.807L267.888 193.312C268.013 192.355 268.088 192.58 269.019 191.725Z" fill="#FBF9F9"/>
<path d="M269.019 191.725C268.067 190.859 267.63 190.293 267.856 188.974C269.359 187.334 270.292 188.278 271.659 189.455C272.663 188.803 273.377 188.2 274.581 188.221C277.07 189.205 274.628 192.107 274.31 193.691L274.013 193.083C272.43 192.65 271.47 192.347 269.801 192.489C268.84 192.571 268.858 192.9 268.099 193.807L267.888 193.312C268.013 192.355 268.088 192.58 269.019 191.725Z" fill="#F9EB78"/>
<path d="M269.019 191.725C268.067 190.859 267.63 190.293 267.856 188.974C269.359 187.334 270.292 188.278 271.659 189.455C270.737 189.96 269.801 190.973 269.019 191.725Z" fill="#EFDD31"/>
<path d="M263.209 222.833C263.514 222.406 264.428 221.129 264.365 220.739C263.805 217.295 263.359 217.445 264.005 213.902C264.371 214.459 265.912 216.772 266.126 217.272C268.347 222.459 268.881 231.965 267.901 237.419C267.367 240.39 265.526 245.669 264.594 248.507C263.971 248.722 262.662 249.033 262.382 249.461L260.998 248.266C259.279 244.788 262.455 241.238 264.917 239.182C264.306 238.262 263.794 237.633 263.514 236.565C264.139 234.992 264.513 236.525 265.382 235.101C264.986 233.735 264.884 234.543 263.742 233.25C263.891 232.178 263.798 232.545 264.917 231.649C265.038 230.411 264.105 230.96 264.061 229.902C263.951 227.306 263.687 225.371 263.209 222.833Z" fill="#FFF99E"/>
<path d="M252.311 236.14C253.36 235.896 254.101 235.578 255.065 235.952C255.833 237.498 253.737 238.36 253.973 239.537C255.021 239.65 255.48 239.577 256.51 239.481L256.726 239.823C255.393 242.143 253.033 243.184 253.077 245.533C254.767 244.833 255.588 244.245 257.409 244.057L257.626 244.352C255.74 247.076 255.229 246.488 254.727 249.478L254.402 250.006L254.643 250.282L256.761 249.235L257.214 249.481C257.262 250.955 255.46 253.676 254.65 255.019C250.136 249.97 251.713 251.923 245.543 253.015C247.2 251.176 249.679 249.678 251.686 247.744C249.761 245.123 248.801 245.782 250.342 242.641C249.393 243.173 248.892 243.369 247.895 243.759L246.648 242.349C248.346 239.141 251.279 238.961 251.794 236.899C251.887 236.687 252.176 236.325 252.311 236.14Z" fill="#FCE612"/>
<path d="M253.077 245.533C254.767 244.833 255.588 244.245 257.409 244.057L257.626 244.352C255.74 247.076 255.229 246.488 254.727 249.478C254.659 247.349 254.796 246.972 253.077 245.533Z" fill="#EFDD31"/>
<path d="M314.293 179.169C315.243 178.065 315.279 176.882 315.836 175.584C317.563 171.562 321.164 172.925 321.653 176.858C321.96 179.295 320.289 179.171 319.505 180.614C320.566 180.535 322.478 180.338 323.467 180.429C321.263 182.33 318.588 184.493 316.7 186.637C314.564 185.409 312.503 184.539 310.102 183.948C309.209 183.839 308.863 183.942 308.208 183.457L308.637 181.961L309.465 181.602C310.346 181.113 312.131 180.464 313.134 180.066C311.731 178.268 311.654 178.449 311.758 176.224L312.807 175.789C313.897 176.627 313.942 177.751 314.293 179.169Z" fill="#EFDD31"/>
<path d="M314.293 179.169C315.243 178.065 315.279 176.882 315.836 175.584C317.563 171.562 321.164 172.925 321.653 176.858C321.96 179.295 320.289 179.171 319.505 180.614C317.137 180.615 318.198 181.513 316.36 182.486C314.999 181.26 314.987 180.865 314.293 179.169Z" fill="#A90D03"/>
<path d="M313.134 180.067C311.731 178.268 311.654 178.449 311.758 176.224L312.807 175.789C313.897 176.627 313.941 177.751 314.293 179.169C314.987 180.865 314.999 181.26 316.36 182.486C314.671 183.741 310.868 183.16 309.465 181.602C310.346 181.114 312.131 180.464 313.134 180.067Z" fill="#F9EB78"/>
<path d="M362.247 158.01C362.843 156.97 364.43 155.748 365.601 155.424L365.955 155.714C365.827 156.541 365.705 156.627 365.214 157.339L365.5 157.735C366.262 157.781 366.477 157.864 367.117 157.447C367.585 155.475 366.06 156.585 367.319 154.106L367.072 153.752C365.923 153.608 365.038 153.711 364.281 153.076C364.43 152.02 365.899 150.595 366.706 149.904C367.888 148.894 369.976 149.886 371.195 150.371C371.603 151.753 370.116 152.137 370.611 153.669C372.559 153.903 373.646 151.892 374.751 153.268C374.072 155.757 369.205 156.527 368.171 158.044C369.827 160.305 370.506 163.897 367.51 165.41C364.791 166.783 363.748 163.504 362.974 161.631C363.909 160.943 364.749 160.511 365.13 159.465C364.743 158.11 363.447 158.446 362.226 158.489L362.247 158.01Z" fill="#FCE612"/>
<path d="M282.736 215.423C281.302 214.134 274.558 217.016 273.387 214.095C274.26 213.177 277.322 213.263 278.567 212.954C283.582 211.708 288.23 213.204 293.123 214.092C294.347 214.314 295.974 214.325 297.339 214.517C299.338 214.493 304.285 214.137 305.646 215.144C305.551 216.102 305.676 215.741 304.955 216.534C301.703 217.788 296.375 214.757 295.03 216.233L296.146 216.489C296.842 217.785 296.389 218.962 295.161 219.698L294.561 219.462C294.047 218.12 294.472 216.513 294.246 214.762C293.317 216.458 292.595 218.608 290.838 219.285C289.795 218.055 291.427 216.45 292.342 215.68C290.221 215.849 289.753 217.096 288.108 215.934L287.863 216.293L286.078 215.47L285.173 215.181C283.888 215.563 283.874 215.333 283.196 216.275L283.068 217.606L282.736 215.423Z" fill="#F07D80"/>
<path d="M285.173 215.181C286.447 215.026 287.162 214.995 288.108 215.934L287.863 216.293L286.078 215.47L285.173 215.181Z" fill="#2D080A"/>
<path d="M260.805 179.775C262.027 178.503 262.376 178.389 262.451 176.748C261.642 174.622 259.835 175.136 257.9 173.809C257.815 172.397 259.383 171.803 260.598 171.744C262.64 172.717 265.364 175.944 266.922 177.678L266.177 178.304C266.266 180.559 269.634 181.383 271.493 181.417C271.968 181.213 272.307 181.131 272.61 180.719C273.217 181.7 273.718 182.241 273.651 183.361C273.049 184.746 270.926 185.539 269.47 186.32C267.254 184.196 267.694 184.342 264.853 184.057C263.325 183.904 261.747 181.134 260.805 179.775Z" fill="#FCE612"/>
<path d="M252.465 209.769C251.491 208.671 249.988 207.178 249.493 205.864C249.948 204.231 253.135 204.977 254.829 204.747C254.692 208.196 253.139 211.857 251.425 214.845C251.485 215.044 251.559 215.368 251.659 215.526L251.223 215.907L251.182 217.727C250.317 217.134 249.252 216.089 248.454 215.361C248.232 215.639 248.007 215.917 247.78 216.192C246.938 217.211 246.468 217.961 245.14 218.087C244.435 217.695 244.301 217.603 243.532 217.393C242.179 217.92 239.633 220.576 238.44 221.721C239.393 218.238 238.007 217.834 240.576 215.237C241.22 215.325 241.282 215.233 241.875 214.976C244.015 214.294 250.689 211.15 252.465 209.769Z" fill="#FCE612"/>
<path d="M251.659 215.526C252.867 215.175 253.007 214.928 254.118 215.214C254.651 216.256 254.496 217.207 254.315 218.407C253.951 219.689 253.491 221.534 252.928 222.688C252.854 226.785 249.423 227.36 249.781 230.194C251.328 230.949 252.761 230.417 253.358 232.064C253.809 233.31 252.82 234.915 252.311 236.14C252.176 236.325 251.887 236.687 251.795 236.899C250.843 237.127 249.894 237.132 248.992 236.755C247.69 234.919 249.226 234.351 249.462 231.78L249.091 231.468C247.649 231.555 247.631 232.326 246.365 232.629C246.205 231.893 246.314 231.329 246.386 230.581C245.32 229.716 244.81 230.592 243.776 229.914C244.179 228.689 250.009 223.833 251.709 221.978C252.483 220.937 252.902 219.752 252.922 218.457L251.182 217.727L251.223 215.907L251.659 215.526Z" fill="#FCE612"/>
<path d="M240.576 215.237L240.053 214.686C237.152 214.061 235.5 218.764 233.355 216.809C233.867 215.628 235.06 216.002 235.639 214.667C235.377 213.446 235.103 213.981 234.045 212.727L234.204 212.116C237.102 210.126 238.632 204.722 242.036 204.163C243.101 204.56 242.932 204.304 243.31 205.077C242.905 206.272 240.987 207.852 239.978 208.853C241.846 209.461 242.785 209.922 244.561 210.805C243.236 212.182 242.076 213.081 241.875 214.976C241.282 215.233 241.22 215.325 240.576 215.237Z" fill="#FCE612"/>
<path d="M298.549 286.79C299.234 287.663 299.415 287.795 300.315 288.455C298.483 290.733 298.185 292.577 295.151 292.365C294.005 292.57 289.272 291.203 288.008 290.812C286.94 291.831 285.817 293.118 284.807 294.222C283.634 293.872 282.399 293.537 281.304 292.991C279.889 292.287 278.432 290.063 279.493 288.602C280.429 288.858 281.764 290.575 282.505 291.394L282.923 291.11C283.023 290.251 282.975 289.621 283.549 289.03C285.317 289.085 284.246 290.244 285.392 290.072C287.701 289.726 289.943 288.418 292.346 289.023C293.729 290.561 293.685 290.189 295.574 289.659C295.939 288.888 295.362 288.326 295.547 287.299C296.785 287.227 297.106 287.203 298.286 286.867L298.549 286.79Z" fill="#EFDD31"/>
<path d="M326.46 194.431C325.29 193.819 324.53 193.596 324.521 192.24C325.671 191.28 329.903 188.87 331.318 188.953C334.788 191.098 335.551 188.044 339.39 187.197C340.197 187.483 339.881 187.228 340.304 188.061C339.56 188.978 338.541 188.459 336.867 189.484C336.31 190.566 336.432 190.081 336.531 191.411L337.499 192.478C334.029 194.297 329.266 194.418 327.789 195.223C327.297 194.773 327.053 194.702 326.46 194.431Z" fill="#FCE612"/>
<path d="M336.531 191.411L337.499 192.478C334.029 194.297 329.266 194.418 327.789 195.223C327.297 194.773 327.053 194.702 326.46 194.431C329.748 193.077 334.872 193.26 336.531 191.411Z" fill="#080E00"/>
<path d="M253.61 266.569C254.805 266.869 257.146 267.89 258.376 268.386C258.11 269.603 257.715 270.741 258.026 271.901C258.463 272.046 258.589 272.076 259.033 272.13L259.412 272.174C260.823 273.671 259.588 274.326 259.841 276.159C260.083 277.906 261.344 277.579 261.711 278.887C261.51 280.225 260.582 281.455 259.84 282.628L259.169 282.662L258.695 282.195C258.885 280.761 258.918 279.955 258.33 278.641C254.523 276.307 256.555 275.336 256.132 273.634C254.752 273.156 254.845 274.235 253.671 273.708C253.907 270.417 253.965 269.798 253.61 266.569Z" fill="#FCE612"/>
<path d="M246.09 176.97C245.962 175.337 247.269 175.197 248.059 173.515C247.961 171.458 244.758 169.753 242.924 169.608C242.432 169.946 242.129 170.249 241.548 170.25C240.891 168.785 243.095 164.761 244.254 164.181C245.171 165.152 244.76 166.125 245.017 166.431C247.143 168.962 250.032 172.712 251.98 175.21C251.944 176.153 251.807 176.759 252.284 177.544C253.114 177.922 253.179 177.921 253.688 178.64C253.855 179.892 253.034 181.661 252.566 182.931C251.12 180.712 250.487 178.558 249.154 176.35C249.154 176.35 248.041 175.82 247.921 175.763C247.316 176.173 246.706 176.576 246.09 176.97Z" fill="#EFDD31"/>
<path d="M250.637 182.223C252.404 183.185 253.811 186.274 254.938 187.633C255.176 187.92 257.389 188.195 258.244 189.474C258.283 190.299 257.108 192.219 256.649 194.083L256.181 194.359L255.425 193.871C254.829 193.575 252.69 192.552 252.309 192.129C250.896 190.559 252.434 190.661 252.42 189.138L251.916 188.834C251.346 189.019 250.854 189.2 250.294 189.415C249.703 188.26 250.713 187.39 250.424 186.517C250.052 185.389 248.953 185.634 248.631 184.159C249.053 183.13 249.717 182.827 250.637 182.223Z" fill="#FCE612"/>
<path d="M272.521 176.929C275.714 177.008 274.812 174.202 276.485 173.459C277.175 174.989 277.212 175.233 276.662 176.822C277.564 177.751 278.387 176.811 279.382 177.738C278.964 178.8 277.663 179.359 276.602 179.937C277.022 180.9 277.449 181.571 277.344 182.589C276.139 182.854 274.783 180.675 272.61 180.719C272.307 181.131 271.968 181.213 271.493 181.417C269.634 181.383 266.266 180.559 266.177 178.304L266.922 177.678C267.901 178.498 267.977 178.826 269.107 179.044C269.676 178.694 269.52 178.881 269.866 178.356C270.232 177.095 270.472 176.841 271.228 175.827C271.653 176.174 272.142 176.544 272.521 176.929Z" fill="#FCF7AC"/>
<path d="M272.521 176.929C275.714 177.008 274.812 174.202 276.485 173.459C277.175 174.989 277.212 175.233 276.662 176.822C277.564 177.751 278.387 176.811 279.382 177.738C278.964 178.8 277.663 179.359 276.602 179.937C274.351 177.987 272.717 178.093 269.866 178.356C270.232 177.095 270.472 176.841 271.228 175.827C271.653 176.174 272.142 176.544 272.521 176.929Z" fill="#FCE612"/>
<path d="M235.885 147.282C237.409 147.418 240.171 149.885 241.947 150.93C240.352 154.123 241.713 154.941 239.102 156.687C238.266 157.157 237.854 157.482 236.891 157.564C235.876 155.872 235.064 153.999 233.83 152.507C233.506 152.115 233.656 152.343 233.607 151.648C234.073 151.26 234.53 150.861 234.979 150.453C235.174 149.018 235.172 148.554 235.885 147.282Z" fill="#FCE612"/>
<path d="M298.924 216.826C300.118 217.095 300.902 217.114 301.628 218.047C302.811 221.072 300.157 227.521 299.097 230.843C298.739 231.311 298.948 231.104 298.364 231.361C297.505 230.4 297.202 223.274 297.165 221.597C297.114 219.274 297.353 218.407 298.924 216.826Z" fill="#FBF9F9"/>
<path d="M294.892 239.505C296.702 241.202 297.606 249.388 298 252.146C297.305 253.001 296.469 253.851 295.709 254.66L295.049 254.659C294.319 254.284 293.995 254.09 293.554 253.368C292.557 251.737 294.382 240.974 294.892 239.505Z" fill="#FBF9F9"/>
<path d="M270.68 215.013C274.461 215.217 274.319 216.979 273.764 220.043C273.142 223.483 273.058 226.603 273.072 230.093C270.608 227.76 269.45 221.229 269.361 217.881C269.323 216.472 269.705 215.975 270.68 215.013Z" fill="#FBF9F9"/>
<path d="M266.734 215.315C265.191 214.171 259.855 207.4 260 205.718C262.58 204.938 263.278 207.248 265.371 207.128C266.465 208.442 268.511 211.681 269.361 212.48C268.825 213.454 267.579 214.513 266.734 215.315Z" fill="#EFDD31"/>
<path d="M247.852 161.681C249.041 162.339 253.263 168.476 254.642 170.156C254.085 171.128 253.285 172.298 252.66 173.26C252.611 173.372 252.3 173.692 252.203 173.8C251.433 173.456 249.986 171.428 249.568 170.655C247.568 166.947 246.9 165.658 247.852 161.681Z" fill="#FCE612"/>
<path d="M258.814 199.95C258.587 198.93 258.623 198.802 258.962 197.808C260.594 196.54 263.758 198.713 264.921 199.989C264.632 201.414 264.32 200.788 263.925 201.769L263.546 202.713C264.438 203.096 265.607 203.421 265.854 204.397C264.173 204.96 258.918 204.562 257.692 203.109C257.674 201.924 257.543 202.38 258.189 201.385C258.797 200.822 258.609 200.946 258.814 199.95Z" fill="#EFDD31"/>
<path d="M258.814 199.95C258.587 198.93 258.623 198.802 258.962 197.808C260.594 196.54 263.758 198.713 264.921 199.989C264.632 201.414 264.32 200.788 263.925 201.769C261.691 201.493 260.703 201.109 258.814 199.95Z" fill="#EFDD31"/>
<path d="M258.814 199.95C260.703 201.109 261.691 201.493 263.925 201.769L263.546 202.713C260.88 202.523 260.299 201.605 258.189 201.385C258.797 200.822 258.609 200.946 258.814 199.95Z" fill="#080E00"/>
<path d="M275.575 239.418C275.926 239.645 276.258 240.026 276.322 240.429C277.004 244.765 277.425 247.09 279.072 251.167L277.065 253.209C276.43 253.456 276.384 253.406 275.723 253.352C273.27 251.445 274.221 241.917 275.575 239.418Z" fill="#FBF9F9"/>
<path d="M325.51 180.327C325.841 179.821 326.499 179.261 326.961 178.83C327.11 179.183 327.345 179.617 327.363 179.972C326.588 180.842 326.681 181.46 326.639 182.608C326.153 184.751 321.105 188.866 318.615 187.761L318.49 187.066C319.237 184.942 323.601 181.71 325.51 180.327Z" fill="#FCE612"/>
<path d="M325.51 180.327C325.841 179.821 326.499 179.261 326.961 178.83C327.109 179.183 327.345 179.617 327.363 179.972C326.588 180.842 326.681 181.46 326.639 182.608C326.273 180.978 326.588 181.229 325.51 180.327Z" fill="#EFDD31"/>
<path d="M317.855 191.51C318.114 192.086 318.04 191.965 318.123 192.617C317.283 194.243 313.155 194.802 311.77 195.778C311.234 196.157 311.568 196.033 310.752 196.443L310.379 196.195C309.998 194.114 313.659 190.249 315.27 189.138C316.158 188.526 316.423 188.732 317.301 188.992C317.298 190.628 317.036 190.445 317.855 191.51Z" fill="#EFDD31"/>
<path d="M317.301 188.992C317.298 190.628 317.036 190.445 317.855 191.51C316.423 191.568 314.716 193.428 312.369 194.187C312.408 192.714 316.658 191.152 317.301 188.992Z" fill="#080E00"/>
<path d="M312.976 200.4C315.687 201.244 320.125 200.642 321.605 202.444C321.942 203.506 321.751 204.141 321.572 205.222C319.321 205.148 315.83 204.509 313.658 203.961L312.976 200.4Z" fill="#EFDD31"/>
<path d="M360.26 169.49C360.174 167.456 357.523 165.031 359.108 162.503C359.918 162.063 359.945 162.056 360.844 162.12C362.354 163.782 361.056 166.441 363.26 167.688C365.163 167.323 364.767 166.539 366.381 166.629C367.084 167.292 367.129 167.405 367.409 168.331L367.296 168.676C363.111 168.358 363.987 169.717 360.528 169.899L360.26 169.49Z" fill="#EFDD31"/>
<path d="M262.382 249.461C262.662 249.033 263.971 248.722 264.594 248.507C264.553 249.949 264.493 251.429 264.516 252.869C263.404 253.577 262.849 253.885 262.541 255.278C261.516 255.848 261.037 256.108 260.094 256.86C259.174 255.826 259.278 254.618 258.605 252.912C260.066 251.697 261.071 250.869 262.382 249.461Z" fill="#FCFBC9"/>
<path d="M260.094 256.86C258.803 258.323 257.911 259.816 256.097 260L255.786 259.78C254.676 259.01 254.022 259.432 252.557 259.692L252.342 259.446C253.306 257.451 256.819 254.536 258.605 252.912C259.278 254.618 259.174 255.826 260.094 256.86Z" fill="#EFDD31"/>
<path d="M271.228 175.827L271.871 175.488C272.152 174.155 272.001 173.769 271.015 172.718L270.485 172.663C269.662 173.605 269.448 174.96 269.243 176.199C268.453 176.265 268.437 176.272 267.767 175.689C265.033 173.309 270.455 167.715 272.458 170.884C273.741 172.913 273.943 174.948 272.521 176.929C272.142 176.544 271.653 176.174 271.228 175.827Z" fill="#A90D03"/>
<path d="M329.34 201.678C329.871 201.699 331.312 201.718 331.744 201.831L331.464 202.759C331.756 203.235 331.646 203.173 332.057 203.504C331.19 204.042 331.047 204.754 330.636 205.776C329.93 206.094 326.174 205.675 325.126 205.615C325.272 204.507 325.322 203.672 325.733 202.626C326.463 201.976 328.212 201.935 329.34 201.678Z" fill="#EFDD31"/>
<path d="M253.755 198.66C257.212 201.115 251.158 206.009 248.415 202.254C248.433 200.774 249.551 199.415 250.957 198.998C251.956 199.186 252.389 199.294 253.347 199.63L253.557 199.425L253.455 198.994L253.755 198.66Z" fill="#FCE612"/>
<path d="M326.466 185.209C327.047 185.263 327.78 185.916 327.973 186.426C329.105 189.395 325.909 190.012 323.806 190.489C322.695 190.374 321.474 190.526 321.421 189.223C322.222 188 325.099 186.187 326.466 185.209Z" fill="#EFDD31"/>
<path d="M342.806 184.406C343.036 185.091 343.176 185.697 343.619 186.258L343.727 188.672C344.832 188.823 345.502 188.808 346.345 189.562L346.247 190.013C344.763 190.834 341.612 191.059 339.875 191.227L339.765 190.565C340.531 189.637 341.258 189.506 341.484 188.917C341.019 187.886 340.695 187.187 340.79 186.072C341.237 185.067 341.803 184.927 342.806 184.406Z" fill="#FCE612"/>
<path d="M343.727 188.672C344.832 188.823 345.502 188.808 346.345 189.562L346.247 190.013C344.763 190.834 341.612 191.059 339.875 191.227L339.765 190.565C340.531 189.637 341.258 189.506 341.484 188.917C342.089 189.968 341.949 189.828 342.994 189.976C343.751 189.288 343.506 189.702 343.727 188.672Z" fill="#EFDD31"/>
<path d="M266.352 199.746C264.93 198.063 261.746 196.327 259.895 194.903C259.745 193.837 259.674 193.34 260.734 192.928C262.949 193.41 265.52 196.316 267.152 197.933C267.626 198.402 267.396 198.794 267.272 199.479L266.352 199.746Z" fill="#EFDD31"/>
<path d="M251.392 193.106C252.49 193.521 253.601 193.838 254.434 194.659C254.276 195.987 253.126 195.36 252.584 196.845C252.906 197.8 253.055 197.921 253.755 198.66L253.455 198.994C251.75 198.295 249.987 198.036 249.465 196.176C249.722 194.955 250.585 194.112 251.392 193.106Z" fill="#FCE612"/>
<path d="M306.725 207.051C306.969 205.052 305.959 204.975 306.564 203.863C308.077 203.816 307.794 205.212 308.994 204.22C310.12 203.291 310.046 202.319 311.395 201.779C312.008 202.183 311.824 202.203 312.053 203.19C311.639 205.166 308.556 207.279 306.638 207.672L306.725 207.051Z" fill="#FBF9F9"/>
<path d="M362.226 158.489C360.74 159.589 359.721 160.84 358.018 161.897L357.583 161.653C357.16 160.015 356.421 158.125 357.118 156.642C358.268 156.281 357.955 156.185 358.855 156.536C359.221 157.423 359.277 157.73 359.924 158.401C360.88 158.487 361.056 158.379 361.967 158.099L362.247 158.01L362.226 158.489Z" fill="#EFDD31"/>
<path d="M244.182 224.764C243.719 224.068 243.491 223.785 242.927 223.167C243.371 221.449 244.973 220.938 246.587 220.998C247.567 221.505 247.286 221.178 247.628 222.152C247.31 223.946 246.263 224.698 244.959 225.958L244.182 224.764Z" fill="#EFDD31"/>
<path d="M241.941 157.63C242.44 157.642 242.541 157.753 243.017 157.963L243.088 158.592C242.417 160.338 239.99 161.373 238.41 162.111C237.794 162.403 238.099 162.39 237.465 162.164C236.77 159.225 239.769 158.231 241.941 157.63Z" fill="#FCE612"/>
<path d="M266.352 199.746L267.272 199.479C267.909 200.27 268.009 200.38 268.865 200.919C270.738 200.814 270.257 199.583 271.45 200.154C271.843 201.304 271.785 202.232 271.796 203.433C272.711 204.36 273.843 205.691 274.991 206.163C274.38 206.329 274.167 206.312 273.677 206.675C271.401 204.611 269.63 202.258 266.956 200.734C266.751 200.617 266.451 199.997 266.352 199.746Z" fill="#C7C8C2"/>
<path d="M319.252 197.191C320.453 197.124 321.063 197.282 321.754 198.31C321.531 200.593 318.85 200.035 317.182 199.906C316.25 199.86 315.55 199.844 314.951 199.26C315.514 198.4 318.18 197.593 319.252 197.191Z" fill="#EFDD31"/>
<path d="M261.326 189.338C263.368 190.064 268.449 194.514 268.444 197.008C267.329 196.562 263.448 192.68 262.159 191.741C261.19 191.035 261.264 190.41 261.326 189.338Z" fill="#F9EB78"/>
<path d="M262.887 184.456C263.579 185.722 266.538 190.2 266.566 190.885C264.295 192.269 262.781 186.63 261.365 185.9C262.195 185.391 262.263 185.235 262.887 184.456Z" fill="#EFDD31"/>
<path d="M241.085 232.62C241.869 233.196 241.892 234.385 241.363 235.161C240.189 236.887 239.037 237.319 237.094 237.753L236.785 237.327C236.975 235.926 239.903 233.662 241.085 232.62Z" fill="#EFDD31"/>
<path d="M247.895 243.759C246.47 244.73 243.409 247.533 241.675 246.091C241.563 245.502 241.715 245.17 241.846 244.548C243.66 243.052 244.928 245.351 246.648 242.349L247.895 243.759Z" fill="#EFDD31"/>
<path d="M346.75 182.302C347.179 183.311 347.45 183.724 347.402 184.821C346.506 186.282 345.153 185.878 343.619 186.258C343.176 185.697 343.036 185.091 342.806 184.406C343.685 184.035 344.322 183.67 345.147 183.212C346.032 183.045 346.068 182.951 346.75 182.302Z" fill="#EFDD31"/>
<path d="M261.365 185.9C260.223 184.929 258.772 183.011 258.93 181.43L259.44 181.047C261.12 181.373 261.915 183.019 262.887 184.456C262.263 185.235 262.195 185.391 261.365 185.9Z" fill="#EFDD31"/>
<path d="M326.961 178.83C329.233 177.072 329.358 177.547 332.113 178.343L332.328 179.464C329.927 180.535 329.748 180.782 327.363 179.972C327.345 179.617 327.109 179.183 326.961 178.83Z" fill="#EFDD31"/>
<path d="M365.106 148.591C365.61 148.624 365.589 148.678 366.083 148.873L366.128 149.358C365.264 150.521 363.578 151.551 362.342 152.405C361.574 152.41 361.908 152.521 361.297 152.076C361.565 150.689 363.975 149.339 365.106 148.591Z" fill="#EFDD31"/>
<path d="M323.279 175.581C324.354 175.969 325.066 176.506 325.79 177.363C326.067 178.391 326.115 177.971 325.623 178.856C324.337 179.124 324.256 179.363 323.175 178.926C322.743 177.994 323.112 176.68 323.279 175.581Z" fill="#EFDD31"/>
<path d="M346.949 153.22C349.121 153.031 351.76 152.223 352.57 154.623C351.429 155.602 350.69 154.333 348.638 154.902C348.043 153.904 347.956 153.792 346.949 153.22Z" fill="#EFDD31"/>
<path d="M246.09 176.97C246.706 176.576 247.316 176.173 247.921 175.763C247.572 177.499 249.348 179.048 248.526 180.555C247.202 180.658 246.666 178.181 246.09 176.97Z" fill="#EFDD31"/>
<path d="M329.117 200.126C327.491 199.923 326.144 199.95 325.689 198.127L326.115 197.696C327.217 197.468 328.182 198.178 329.263 198.735C329.2 199.192 329.111 199.672 329.117 200.126Z" fill="#EFDD31"/>
<path d="M258.769 185.819C259.48 185.569 260.261 185.92 260.546 186.618C260.831 187.315 260.518 188.114 259.836 188.432C259.363 188.653 258.808 188.595 258.391 188.283C257.974 187.97 257.763 187.453 257.842 186.937C257.921 186.422 258.277 185.992 258.769 185.819Z" fill="#EFDD31"/>
<path d="M286.078 215.47L287.863 216.293C287.837 217.662 287.835 218.102 286.697 218.852C285.771 218.686 286.108 218.892 285.499 218.019C285.356 216.871 285.611 216.496 286.078 215.47Z" fill="#FBF9F9"/>
<path d="M256.727 168.116C258.55 168.296 259.27 168.735 259.36 170.537C258.392 170.708 257.698 170.96 256.826 170.588C256.358 169.539 256.579 169.369 256.727 168.116Z" fill="#EFDD31"/>
<path d="M277.285 215.501C278.224 215.822 277.911 215.585 278.544 216.336C278.814 217.485 278.468 218.224 278.131 219.374C275.947 219.069 276.523 216.863 277.285 215.501Z" fill="#FBF9F9"/>
<path d="M283.068 217.606C282.777 218.445 283.021 218.114 282.321 218.644L281.605 218.519C280.857 217.698 281.044 218.106 280.925 216.969C281.546 215.799 281.391 216.133 282.736 215.423L283.068 217.606Z" fill="#FBF9F9"/>
<path d="M266.016 169.666L266.883 169.929L267.136 170.413C266.977 171.512 266.368 172.056 265.648 172.936C264.805 172.624 264.86 172.569 264.615 171.801C264.881 170.739 265.276 170.439 266.016 169.666Z" fill="#EFDD31"/>
<path d="M331.044 182.905C331.381 183.002 331.351 183.054 331.649 183.313C331.193 184.109 329.558 184.977 328.7 185.51L328.033 185.246L327.902 184.764C328.566 183.934 330.02 183.395 331.044 182.905Z" fill="#A79A35"/>
<path d="M335.461 177.081L335.586 178.698C334.204 179.152 333.775 179.267 332.328 179.464L332.113 178.343C333.906 178.283 334.312 178.547 335.461 177.081Z" fill="#EFDD31"/>
<path d="M244.182 224.764L244.959 225.958C244.063 226.735 243.603 227.293 242.455 227.543L242.189 227.218C242.523 226.049 243.252 225.59 244.182 224.764Z" fill="#EFDD31"/>
<path d="M257.831 261.512L258.309 261.708L258.343 262.34C257.797 263.487 257.658 263.614 256.725 264.487C256.027 264.14 256.288 264.393 255.924 263.695C256.182 262.754 257.05 262.192 257.831 261.512Z" fill="#F9EB78"/>
<path d="M354.595 165.843C356.171 166.343 356.305 166.964 356.615 168.528C355.06 167.665 354.735 167.58 354.595 165.843Z" fill="#C3C064"/>
<path d="M142.984 223.394C147.71 222.291 159.317 221.089 164.713 220.377C178.188 218.601 191.88 216.581 205.337 214.96L205.667 218.152L205.577 219.189C205.15 219.366 190.185 221.274 189.873 221.289C183.824 221.585 145.689 228.152 143.344 227.056C142.856 225.968 142.977 224.609 142.984 223.394Z" fill="#FCE612"/>
<path d="M143.373 182.529C163.682 184.227 185.399 188.13 205.616 189.621C205.501 190.992 205.402 192.723 205.138 194.042C184.429 191.676 163.625 188.928 142.912 186.741C142.942 185.376 143.185 183.893 143.373 182.529Z" fill="#FCE612"/>
<path d="M405.906 207.304C411.759 207.281 417.549 207.84 423.372 208.056C437.994 208.599 453.333 210.126 467.91 210.426L467.853 214.866C461.634 214.484 406.451 211.835 405.775 211.292C405.781 210.014 405.862 208.594 405.906 207.304Z" fill="#FCE612"/>
<path d="M210.115 239.357C210.748 240.978 211.127 242.07 211.596 243.741C205.534 245.551 194.19 250.421 187.982 252.937C176.563 257.567 164.068 262.25 152.907 267.23C152.315 265.99 151.839 264.497 151.384 263.187C166.61 256.789 182.225 251.024 197.484 244.673C201.735 242.904 205.924 241.295 210.115 239.357Z" fill="#FCE612"/>
<path d="M403.902 181.877C409.51 181.08 416.143 179.707 421.728 178.481C435.998 175.349 451.12 173.207 465.235 169.681C465.554 170.962 466.007 172.598 466.218 173.866C446.697 178.033 424.227 182.613 404.676 186.105C404.354 184.813 404.128 183.215 403.902 181.877Z" fill="#FCE612"/>
<path d="M152.878 142.435C155.757 144.143 164.986 147.329 168.419 148.752C182.19 154.462 197.793 159.385 211.262 165.48L209.847 169.437C205.429 167.339 199.528 165.229 194.888 163.441L168.021 153.099C162.73 151.062 156.682 148.892 151.56 146.566C151.855 145.24 152.424 143.738 152.878 142.435Z" fill="#FCE612"/>
<path d="M220.161 262.039C220.886 263.195 221.863 264.663 222.459 265.848C221.904 266.604 213.666 272.201 212.257 273.209L186.403 291.832C181.705 295.219 175.257 299.598 170.97 303.251C170.186 302.181 169.353 300.879 168.602 299.765C171.063 297.576 176.986 293.557 179.866 291.487L205.322 273.157C209.513 270.135 216.543 265.34 220.161 262.039Z" fill="#FCE612"/>
<path d="M402.57 232.166C413.775 235.837 425.004 239.422 436.263 242.923C444.487 245.521 453.422 248.561 461.649 250.837C461.289 252.309 460.94 253.822 460.517 255.273C457.044 253.783 452.326 252.397 448.654 251.242L430.574 245.572L412.748 239.889C409.367 238.807 404.834 237.232 401.465 236.472C401.784 234.811 402.07 233.788 402.57 232.166Z" fill="#FCE612"/>
<path d="M396.619 158.083C398.716 157.155 400.858 156.1 402.91 155.074C419.595 146.743 436.895 139.378 453.482 130.872L455.403 134.685C436.439 143.762 417.144 152.622 398.299 161.869C397.605 160.611 397.152 159.412 396.619 158.083Z" fill="#FCE612"/>
<path d="M235.006 282.046C236.002 283.03 237.166 284.093 237.931 285.244C234.106 289.039 229.113 295.517 225.391 299.699C215.593 310.702 206.128 322.606 196.341 333.576C195.216 332.658 194.445 331.729 193.485 330.647C196.547 326.801 200.533 322.394 203.787 318.607L223.972 295.133C227.416 291.127 231.898 286.192 235.006 282.046Z" fill="#FCE612"/>
<path d="M170.997 106.251C175.085 109.768 183.578 115.395 188.203 118.653C199.556 126.582 210.856 134.587 222.102 142.667C221.393 143.84 220.626 145.184 219.818 146.268C216.894 143.567 208.043 137.739 204.561 135.219C192.753 126.672 180.348 118.488 168.655 109.799C169.385 108.632 170.231 107.407 170.997 106.251Z" fill="#FCE612"/>
<path d="M406.672 67.1765C407.553 68.1662 408.548 69.2365 409.385 70.2474C400.628 81.5943 391.931 92.987 383.296 104.425C380.464 108.135 372.863 117.482 370.912 120.924C369.813 119.991 368.675 118.924 367.596 117.953C370.352 115.139 375.18 108.454 377.729 105.102L396.673 80.1638C399.413 76.5577 403.851 70.3624 406.672 67.1765Z" fill="#FCE612"/>
<path d="M393.903 255.903C397.793 259.005 405.358 263.136 409.811 266.004C421.692 273.654 434.765 280.944 446.441 288.812L444.484 292.604C439.974 289.134 430.771 283.81 425.582 280.61L391.874 259.808C392.518 258.319 393.093 257.316 393.903 255.903Z" fill="#FCE612"/>
<path d="M196.389 75.452C205.947 87.0366 216.644 98.3748 226.3 109.953C229.969 114.353 234.096 118.576 237.62 123.106C236.772 124.011 235.696 125.228 234.77 125.999C222.103 110.254 206.781 94.2572 193.677 78.5304C194.59 77.3092 195.328 76.553 196.389 75.452Z" fill="#FCE612"/>
<path d="M373.783 46.0324C374.995 46.7847 375.942 47.3532 377.059 48.2509C371.162 61.095 365.357 73.9822 359.65 86.9109C356.82 93.2286 353.877 100.139 350.848 106.328C349.666 105.827 348.48 105.124 347.354 104.496C353.18 91.7168 358.941 78.9073 364.636 66.0693C367.23 60.2655 370.87 51.361 373.783 46.0324Z" fill="#FCE612"/>
<path d="M253.928 297.85C255.464 298.728 256.057 299.079 257.4 300.206C256.901 300.965 256.428 301.883 255.996 302.694C246.393 320.657 237.376 338.969 227.791 356.938L224.586 354.579C234.163 335.766 244.619 316.739 253.928 297.85Z" fill="#FCE612"/>
<path d="M433.547 96.1432C434.366 97.2164 435.224 98.3856 436.111 99.39L386.859 139.725C386.048 138.755 385.134 137.483 384.354 136.457C395.553 127.16 406.818 117.944 418.145 108.809C423.086 104.789 428.805 100.334 433.547 96.1432Z" fill="#FCE612"/>
<path d="M224.657 54.024C225.69 53.2327 226.874 52.5882 228.001 51.9265C230.131 55.2096 233.913 63.0421 235.892 66.8368L249.016 92.0028C251.687 97.1285 254.515 102.822 257.393 107.759C256.322 108.463 255.136 109.283 254.052 109.937C252.841 108.62 247.274 97.2724 246.1 95.0184C239.024 81.3166 231.876 67.6517 224.657 54.024Z" fill="#FCE612"/>
<path d="M337.073 33.5862C338.252 33.9967 339.521 34.4663 340.703 34.834L332.346 76.5899C331.375 81.4712 328.807 92.8803 328.399 97.4551C327.095 97.1917 325.638 96.8014 324.331 96.4828C327.235 82.4273 330.064 68.3569 332.825 54.2725C334.118 47.7972 335.44 39.7954 337.073 33.5862Z" fill="#FCE612"/>
<path d="M349.52 301.561L365.672 336.767C368.922 343.835 372.794 351.796 375.755 358.95L372.699 361.128C370.134 356.635 367.212 349.713 365.038 344.907L353.186 318.983C351.003 314.23 348.403 308.185 345.981 303.638C347.018 302.816 348.343 302.184 349.52 301.561Z" fill="#FCE612"/>
<path d="M371.239 286.34L396.023 319.859C399.455 324.518 404.688 332.11 408.179 336.287C407.196 337.256 406.198 338.26 405.203 339.207L368.267 289.016C369.166 288.006 370.197 287.204 371.239 286.34Z" fill="#FCE612"/>
<path d="M275.928 308.48C277.689 308.846 278.224 308.986 279.866 309.686C279.264 311.561 278.764 313.59 278.246 315.499C273.214 334.041 268.985 352.97 263.694 371.428C262.538 371.106 261.425 370.948 260.62 370.126C260.136 367.018 274.249 316.617 275.928 308.48Z" fill="#FCE612"/>
<path d="M260.318 38.0003C261.377 37.4809 262.73 36.9619 263.844 36.5028C265.329 40.5284 267.932 51.7274 269.081 56.2018C272.605 70.2024 276.228 84.1778 279.951 98.1269L276.127 99.3619C274.614 92.5052 272.23 84.1641 270.452 77.2838L260.318 38.0003Z" fill="#FCE612"/>
<path d="M300.002 313.155L303.969 313.301C303.457 322.787 303.359 332.104 303.112 341.591C302.712 353.217 302.415 364.846 302.218 376.478L298.26 376.552C298.027 369.694 298.742 361.515 298.861 354.558C299.097 340.792 299.797 326.908 300.002 313.155Z" fill="#FCE612"/>
<path d="M302.105 94.6129L300.526 94.5134C299.731 93.5319 299.883 82.9329 299.826 80.9161C299.451 70.4524 299.168 59.9857 298.98 49.5169C298.897 46.0455 298.042 33.3996 298.754 31.1832C299.686 30.7038 301.193 30.7595 302.105 31.2729C302.596 32.9971 302.593 43.6101 302.68 46.3247C303.204 62.3914 303.398 78.3812 304.124 94.4538L302.105 94.6129Z" fill="#FCE612"/>
<path d="M328.358 310.339C329.4 317.341 340.593 369.023 340.144 371.672C339.455 372.53 338.303 373.037 337.195 372.777C335.786 371.061 333.567 356.921 332.903 353.604L324.465 311.26L328.358 310.339Z" fill="#FCE612"/>
<path d="M174.403 168.897C178.515 170.209 207.012 176.84 207.803 177.802L206.873 181.609C196.731 178.88 183.785 175.524 173.554 173.337C173.719 171.79 174.061 170.407 174.403 168.897Z" fill="#FCE612"/>
<path d="M226.566 84.8616C233.514 94.5137 240.108 104.934 247.008 114.706C245.947 115.689 245.1 116.465 243.959 117.353C243.158 116.641 240.806 112.983 240.072 111.801C234.974 103.59 228.402 95.5771 223.553 87.2985C224.609 86.2274 225.348 85.7325 226.566 84.8616Z" fill="#FCE612"/>
<path d="M214.222 157.642C207.623 152.993 198.593 149.438 191.605 145.23C189.335 143.863 181.17 141.329 184.959 137.694C185.64 137.524 186.065 137.332 186.774 137.757C189.478 139.379 192.264 140.828 195.022 142.306L216.036 153.658C215.489 154.889 214.834 156.48 214.222 157.642Z" fill="#FCE612"/>
<path d="M203.155 108.211C204.525 110.095 209.901 114.771 211.822 116.512L229.297 132.334C228.356 133.709 227.837 134.477 226.705 135.681C219.797 128.236 208.105 119.246 200.485 111.648C201.218 110.531 202.296 109.272 203.155 108.211Z" fill="#FCE612"/>
<path d="M204.753 202.334C204.765 203.605 204.838 205.536 204.758 206.749C193.597 206.681 181.725 207.146 170.69 206.88L170.566 202.722C181.303 202.264 193.801 202.502 204.753 202.334Z" fill="#FCE612"/>
<path d="M312.414 94.8137C312.84 83.9156 314.597 72.8384 314.993 61.9132C315.041 60.6168 315.264 59.6353 315.943 58.504C317.135 57.6706 317.486 57.6388 318.942 58.1831C319.225 58.653 319.285 59.5319 319.187 60.031C318.317 64.3975 317.164 93.3529 316.071 95.1981C314.832 95.1018 313.644 94.96 312.414 94.8137Z" fill="#FCE612"/>
<path d="M173.81 236.191C184.589 233.346 196.506 230.489 207.061 227.234C207.415 228.655 207.793 230.101 208.093 231.532C197.033 234.387 185.991 237.31 174.967 240.3C174.52 239.069 174.148 237.484 173.81 236.191Z" fill="#FCE612"/>
<path d="M405.576 194.514C411.845 193.868 418.621 193.529 424.96 193.087C429.24 192.789 435 192.226 439.137 192.252C439.242 193.605 439.385 195.059 439.417 196.406L417.29 197.977C413.898 198.218 409.153 198.695 405.838 198.751L405.576 194.514Z" fill="#FCE612"/>
<path d="M227.056 272.545C228.006 273.713 228.782 274.658 229.612 275.914C229.001 276.711 222.954 282.142 221.907 283.102L203.814 299.789C202.975 298.79 202.103 297.615 201.293 296.574C209.522 288.433 219.004 280.756 227.056 272.545Z" fill="#FCE612"/>
<path d="M254.987 67.6293L263.139 88.7781C264.769 93.0198 266.857 98.0867 268.199 102.348L264.873 103.927C263.126 100.225 261.075 94.4779 259.595 90.5784C256.985 83.5873 254.287 76.6295 251.501 69.7066C252.572 69.01 253.871 68.2863 254.987 67.6293Z" fill="#FCE612"/>
<path d="M401.141 101.195C402.031 102.237 402.928 103.275 403.83 104.308C396.02 112.876 386.996 121.266 379.394 129.851C378.423 128.944 377.455 127.765 376.574 126.748C384.529 118.462 393.542 109.612 401.141 101.195Z" fill="#FCE612"/>
<path d="M184.274 268.093C190.102 264.257 197.169 261.166 203.194 257.565C206.943 255.325 210.874 253.648 214.365 250.924C215.091 252.248 215.893 253.632 216.462 255.02C206.313 260.479 196.225 266.052 186.201 271.74C185.232 270.28 184.966 269.716 184.274 268.093Z" fill="#FCE612"/>
<path d="M376.592 79.6335C377.664 80.4588 378.572 81.1727 379.725 81.8892C373.708 92.0249 366.983 102.842 361.202 113.009C360.371 112.537 358.756 111.204 357.934 110.559C364.204 101.186 370.322 88.4909 376.592 79.6335Z" fill="#FCE612"/>
<path d="M244.032 290.608C245.11 291.448 246.302 292.323 247.258 293.283C240.401 302.881 233.985 313.435 227.096 322.844C226.191 322.093 225.107 321.029 224.225 320.21C225.747 317.451 228.796 313.217 230.654 310.47C235.168 303.888 239.628 297.266 244.032 290.608Z" fill="#FCE612"/>
<path d="M287.966 96.1509C287.394 94.0689 282.936 61.4341 283.097 59.6768C284.167 59.0293 285.431 58.8863 286.622 59.2477C287.05 60.2905 288.116 68.8688 288.337 70.4754L291.814 95.533L287.966 96.1509Z" fill="#FCE612"/>
<path d="M391.109 146.925C400.173 140.682 411.068 134.168 420.444 128.167C421.073 129.359 421.716 130.657 422.446 131.778C412.861 138.185 402.814 143.987 393.271 150.504C392.509 149.39 391.794 148.101 391.109 146.925Z" fill="#FCE612"/>
<path d="M347.459 64.5339L351 66.4107C347.253 77.5669 343.152 89.9247 339.911 101.191C338.875 100.941 337.138 100.126 336.096 99.6751C340.075 88.0991 343.45 76.0095 347.459 64.5339Z" fill="#FCE612"/>
<path d="M361.601 294.128C366.95 303.686 373.527 315.896 379.234 325.022C378.158 326.041 377.375 326.732 376.213 327.653C370.146 317.722 363.981 306.54 358.226 296.339C359.12 295.541 360.534 294.763 361.601 294.128Z" fill="#FCE612"/>
<path d="M404.864 219.908C408.265 220.191 413.472 221.313 416.962 221.959L437.869 225.799L437.368 230.129C434.011 229.406 404.831 224.389 404.453 223.818C404.399 223.737 404.366 223.644 404.322 223.556C404.417 222.31 404.646 221.137 404.864 219.908Z" fill="#FCE612"/>
<path d="M264.73 303.927C266.295 304.451 266.811 304.779 268.24 305.628C263.965 316.959 259.61 328.261 255.177 339.532C254.121 339.008 252.98 338.567 252.262 337.649C251.898 336.15 263.282 307.517 264.73 303.927Z" fill="#FCE612"/>
<path d="M387.588 266.962C388.622 267.922 389.709 268.916 390.811 269.789C398.704 276.025 406.499 282.463 414.466 288.598C413.677 289.812 412.891 291.051 412.09 292.255C403.961 284.883 393.492 277.754 385.185 270.538C385.834 269.328 386.778 268.091 387.588 266.962Z" fill="#FCE612"/>
<path d="M338.419 306.945C342.398 317.719 346.142 330.424 349.785 341.519C348.793 341.946 347.232 342.565 346.318 343.051C342.249 331.768 338.61 319.79 334.77 308.358C335.926 307.866 337.236 307.398 338.419 306.945Z" fill="#FCE612"/>
<path d="M398.817 244.328C408.763 249.275 419.583 253.883 429.687 258.665C429.162 260.007 428.585 261.385 428.209 262.77C421.177 258.891 412.956 255.691 405.695 252.198C404.316 251.533 398.213 248.881 397.358 248.205C397.805 246.75 398.222 245.734 398.817 244.328Z" fill="#FCE612"/>
<path d="M400.849 169.754C411.407 166.651 422.925 161.985 433.169 159.064L434.437 163.23C425.415 165.76 416.393 169.141 407.464 172.019C405.713 172.583 403.919 173.248 402.222 173.946C401.781 172.873 401.221 170.919 400.849 169.754Z" fill="#FCE612"/>
<path d="M287.82 311.528C288.814 311.71 290.859 312.025 291.737 312.3C289.992 324.048 288.091 336.603 286.655 348.36C285.402 348.241 284.128 347.97 282.887 347.735C283.115 344.028 284.004 338.963 284.551 335.131C285.708 327.272 286.798 319.403 287.82 311.528Z" fill="#FCE612"/>
<path d="M380.047 277.196C387.002 284.864 396.72 294.542 404.149 301.901C403.008 303.093 402.293 303.865 400.995 304.872C393.79 296.599 384.866 288.411 377.295 280.316C378.057 279.23 379.123 278.173 380.047 277.196Z" fill="#FCE612"/>
<path d="M312.408 312.916L316.071 312.702C316.494 314.037 316.983 322.32 317.123 324.313C317.691 332.417 318.704 340.861 319.047 348.944C317.986 349.073 316.512 349.29 315.478 349.338C314.171 338.403 313.596 327.31 312.61 316.34C312.509 315.208 312.411 314.054 312.408 312.916Z" fill="#FCE612"/>
</g>
<defs>
<clipPath id="clip0_2_5">
<rect width="610" height="407" fill="white"/>
</clipPath>
</defs>
</svg>
